<?xml version="1.0" encoding="UTF-8"?>
<svg width="400" height="220" viewBox="0 0 400 220" xmlns="http://www.w3.org/2000/svg">
 <style>
       @import url('https://fonts.googleapis.com/css2?family=Roboto:wght@500');
       .balls { fill: #ff9900}
       .ekgfname { font-family: 'Roboto', sans-serif ; font-size: 60px ; font-weight: bold ; fill: #081120 }
</style>
<!-- <rect width="400" height="220" style="fill:rgb(110, 50, 25); stroke-width:4; stroke:rgb(43, 222, 221);" /> -->
 <g id="orangeballs" class="balls">
  <circle cx="30" cy="60" r="12"/>
  <circle cx="80" cy="40" r="8"/>
  <circle cx="125" cy="40" r="8"/>
  <circle cx="170" cy="80" r="12"/>
  <circle cx="170" cy="150" r="12"/>
  <circle cx="100" cy="180" r="12"/>
  <circle cx="50" cy="150" r="18"/>
  <circle cx="100" cy="100" r="18"/>
 </g>
 <g class="lines" stroke="#f90" stroke-width="2.2">
  <line x1="100" x2="30" y1="100" y2="60"/>
  <line x1="100" x2="80" y1="100" y2="40"/>
  <line x1="100" x2="125" y1="100" y2="40"/>
  <line x1="125" x2="170" y1="40" y2="80"/>
  <line x1="100" x2="50" y1="100" y2="150"/>
  <line x1="100" x2="170" y1="100" y2="150"/>
  <line x1="100" x2="170" y1="180" y2="150"/>
  <line x1="170" x2="170" y1="80" y2="150"/>
  <line x1="100" x2="50" y1="180" y2="150"/>
 </g>
 <g>
  <text class="ekgfname" x="200" y="60">Enterprise</text>
  <text class="ekgfname" x="200" y="105">Knowledge</text>
  <text class="ekgfname" x="200" y="150">Graph</text>
  <text class="ekgfname" x="200" y="195">Foundation</text>
 </g>
</svg>
