<?xml version="1.0" encoding="UTF-8" standalone="no"?><svg xmlns="http://www.w3.org/2000/svg" xmlns:xlink="http://www.w3.org/1999/xlink" contentStyleType="text/css" height="1603px" preserveAspectRatio="none" style="width:3496px;height:1603px;background:#2E303E;" version="1.1" viewBox="0 0 3496 1603" width="3496px" zoomAndPan="magnify"><defs><filter height="300%" id="fkouufip2zsl0" width="300%" x="-1" y="-1"><feGaussianBlur result="blurOut" stdDeviation="2.0"/><feColorMatrix in="blurOut" result="blurOut2" type="matrix" values="0 0 0 0 0 0 0 0 0 0 0 0 0 0 0 0 0 0 .4 0"/><feOffset dx="4.0" dy="4.0" in="blurOut2" result="blurOut3"/><feBlend in="SourceGraphic" in2="blurOut3" mode="normal"/></filter></defs><g><!--MD5=[9a31feca2e89e46ced0bedcfce05847b]
cluster CapabilityModel--><g id="cluster_CapabilityModel"><path d="M2098,209 L2259,209 A30,30 0 0 1 2279,229 L2286,236.9688 L2432,236.9688 A20,20 0 0 1 2452,256.9688 L2452,641 A20,20 0 0 1 2432,661 L2098,661 A20,20 0 0 1 2078,641 L2078,229 A20,20 0 0 1 2098,209 " fill="#1A618C" filter="url(#fkouufip2zsl0)" style="stroke:#EEEEEE;stroke-width:1.5;"/><line style="stroke:#EEEEEE;stroke-width:1.5;" x1="2078" x2="2286" y1="236.9688" y2="236.9688"/><text fill="#EEEEEE" font-family="sans-serif" font-size="12" font-weight="bold" lengthAdjust="spacing" textLength="187" x="2086" y="226.1387">Abstract Capability Model</text></g><!--MD5=[d3a272a864472af4592dd15ecfd1f2f5]
cluster BusinessCapabilityModel--><g id="cluster_BusinessCapabilityModel"><path d="M3076,467 L3237,467 A30,30 0 0 1 3257,487 L3264,494.9688 L3449,494.9688 A20,20 0 0 1 3469,514.9688 L3469,918 A20,20 0 0 1 3449,938 L3076,938 A20,20 0 0 1 3056,918 L3056,487 A20,20 0 0 1 3076,467 " fill="#1A618C" filter="url(#fkouufip2zsl0)" style="stroke:#EEEEEE;stroke-width:1.5;"/><line style="stroke:#EEEEEE;stroke-width:1.5;" x1="3056" x2="3264" y1="494.9688" y2="494.9688"/><text fill="#EEEEEE" font-family="sans-serif" font-size="12" font-weight="bold" lengthAdjust="spacing" textLength="187" x="3064" y="484.1387">Business Capability Model</text></g><!--MD5=[c9e37ecaf12495401f24b2850f47b16b]
cluster EKGMaturityModel--><g id="cluster_EKGMaturityModel"><path d="M873,456 L988,456 A30,30 0 0 1 1008,476 L1015,483.9688 L1190,483.9688 A20,20 0 0 1 1210,503.9688 L1210,1556 A20,20 0 0 1 1190,1576 L873,1576 A20,20 0 0 1 853,1556 L853,476 A20,20 0 0 1 873,456 " fill="#1A618C" filter="url(#fkouufip2zsl0)" style="stroke:#EEEEEE;stroke-width:1.5;"/><line style="stroke:#EEEEEE;stroke-width:1.5;" x1="853" x2="1015" y1="483.9688" y2="483.9688"/><text fill="#EEEEEE" font-family="sans-serif" font-size="12" font-weight="bold" lengthAdjust="spacing" textLength="141" x="861" y="473.1387">EKG Maturity Model</text></g><!--MD5=[6326b81c113285a9d7424a8f38b27174]
cluster Usecases--><g id="cluster_Usecases"><path d="M1417,758 L1459,758 A30,30 0 0 1 1479,778 L1486,785.9688 L2038,785.9688 A20,20 0 0 1 2058,805.9688 L2058,948 A20,20 0 0 1 2038,968 L1417,968 A20,20 0 0 1 1397,948 L1397,778 A20,20 0 0 1 1417,758 " fill="#1A618C" filter="url(#fkouufip2zsl0)" style="stroke:#EEEEEE;stroke-width:1.5;"/><line style="stroke:#EEEEEE;stroke-width:1.5;" x1="1397" x2="1486" y1="785.9688" y2="785.9688"/><text fill="#EEEEEE" font-family="sans-serif" font-size="12" font-weight="bold" lengthAdjust="spacing" textLength="68" x="1405" y="775.1387">Usecases</text></g><!--MD5=[2349472c9846ebf7d7d2c95adbea7771]
cluster Vocabulary--><g id="cluster_Vocabulary"><path d="M26,6 L81,6 A30,30 0 0 1 101,26 L108,33.9688 L809,33.9688 A20,20 0 0 1 829,53.9688 L829,918 A20,20 0 0 1 809,938 L26,938 A20,20 0 0 1 6,918 L6,26 A20,20 0 0 1 26,6 " fill="#1A618C" filter="url(#fkouufip2zsl0)" style="stroke:#EEEEEE;stroke-width:1.5;"/><line style="stroke:#EEEEEE;stroke-width:1.5;" x1="6" x2="108" y1="33.9688" y2="33.9688"/><text fill="#EEEEEE" font-family="sans-serif" font-size="12" font-weight="bold" lengthAdjust="spacing" textLength="81" x="14" y="23.1387">Vocabulary</text></g><!--MD5=[a9ba74b9f8b68096293197e10f52907c]
cluster Requirements--><g id="cluster_Requirements"><path d="M1262,1065 L1337,1065 A30,30 0 0 1 1357,1085 L1364,1092.9688 L2063,1092.9688 A20,20 0 0 1 2083,1112.9688 L2083,1321 A20,20 0 0 1 2063,1341 L1262,1341 A20,20 0 0 1 1242,1321 L1242,1085 A20,20 0 0 1 1262,1065 " fill="#1A618C" filter="url(#fkouufip2zsl0)" style="stroke:#EEEEEE;stroke-width:1.5;"/><line style="stroke:#EEEEEE;stroke-width:1.5;" x1="1242" x2="1364" y1="1092.9688" y2="1092.9688"/><text fill="#EEEEEE" font-family="sans-serif" font-size="12" font-weight="bold" lengthAdjust="spacing" textLength="101" x="1250" y="1082.1387">Requirements</text></g><!--MD5=[123b72e3e7fa46ce6cfa450f96a9e3ec]
cluster Assessments--><g id="cluster_Assessments"><path d="M2375,744 L2444,744 A30,30 0 0 1 2464,764 L2471,771.9688 L3012,771.9688 A20,20 0 0 1 3032,791.9688 L3032,1272 A20,20 0 0 1 3012,1292 L2375,1292 A20,20 0 0 1 2355,1272 L2355,764 A20,20 0 0 1 2375,744 " fill="#1A618C" filter="url(#fkouufip2zsl0)" style="stroke:#EEEEEE;stroke-width:1.5;"/><line style="stroke:#EEEEEE;stroke-width:1.5;" x1="2355" x2="2471" y1="771.9688" y2="771.9688"/><text fill="#EEEEEE" font-family="sans-serif" font-size="12" font-weight="bold" lengthAdjust="spacing" textLength="95" x="2363" y="761.1387">Assessments</text></g><!--MD5=[7e20e022571e30ec1001cf6eabd7f3e2]
class Model--><g id="elem_Model"><rect codeLine="193" fill="#9397B2" filter="url(#fkouufip2zsl0)" height="91.9063" id="Model" rx="20" ry="20" style="stroke:#0077B6;stroke-width:0.5;" width="177" x="2109.5" y="273"/><ellipse cx="2172.5" cy="288.9844" fill="#A9DCDF" rx="10" ry="10" style="stroke:#181818;stroke-width:1.0;"/><path d="M2173.9844,290.0938 L2174.2656,290.7813 L2173.9844,290.7813 C2173.6875,290.7813 2173.5938,290.7969 2173.4844,290.875 C2173.3125,290.9688 2173.2031,291.1875 2173.2031,291.3906 C2173.2031,291.5781 2173.2969,291.75 2173.4531,291.8594 C2173.5625,291.9531 2173.7031,291.9844 2173.9844,291.9844 L2175.6563,291.9844 C2175.9063,291.9844 2176.0625,291.9531 2176.1563,291.9063 C2176.3438,291.7969 2176.4531,291.5938 2176.4531,291.3906 C2176.4531,291.1875 2176.3594,291.0156 2176.2031,290.9063 C2176.0781,290.8125 2175.9688,290.7813 2175.6406,290.7813 L2173.25,284.9844 L2170.6563,284.9844 C2170.3281,284.9844 2170.25,285 2170.1406,285.0781 C2169.9531,285.1875 2169.8594,285.3906 2169.8594,285.5938 C2169.8594,285.7813 2169.9531,285.9531 2170.1094,286.0781 C2170.2188,286.1719 2170.3438,286.1875 2170.6563,286.1875 L2171.4063,286.1875 L2169.5469,290.7813 C2169.25,290.7813 2169.1406,290.7969 2169.0313,290.875 C2168.8594,290.9688 2168.75,291.1875 2168.75,291.3906 C2168.75,291.7813 2169.0156,291.9844 2169.5469,291.9844 L2171.1406,291.9844 C2171.3906,291.9844 2171.5469,291.9531 2171.6406,291.9063 C2171.8125,291.7969 2171.9219,291.5938 2171.9219,291.3906 C2171.9219,291.1875 2171.8281,291.0156 2171.6719,290.8906 C2171.5625,290.8125 2171.4531,290.7813 2171.1406,290.7813 L2170.8594,290.7813 L2171.1406,290.0938 L2173.9844,290.0938 Z M2173.5,288.8906 L2171.6094,288.8906 L2172.5625,286.5781 L2173.5,288.8906 Z " fill="#EEEEEE"/><text fill="#03045E" font-family="sans-serif" font-size="12" font-style="italic" lengthAdjust="spacing" textLength="35" x="2195.5" y="293.1387">Model</text><line style="stroke:#0077B6;stroke-width:0.5;" x1="2110.5" x2="2285.5" y1="304.9688" y2="304.9688"/><ellipse cx="2120.5" cy="315.9688" fill="none" rx="3" ry="3" style="stroke:#038048;stroke-width:1.0;"/><text fill="#03045E" font-family="sans-serif" font-size="12" lengthAdjust="spacing" textLength="33" x="2132.5" y="324.1074">name</text><ellipse cx="2120.5" cy="337.9375" fill="none" rx="3" ry="3" style="stroke:#038048;stroke-width:1.0;"/><text fill="#03045E" font-family="sans-serif" font-size="12" lengthAdjust="spacing" textLength="144" x="2132.5" y="346.0762">capabilities: Capability[]</text><line style="stroke:#0077B6;stroke-width:0.5;" x1="2110.5" x2="2285.5" y1="356.9063" y2="356.9063"/></g><!--MD5=[07b8cd14e43b1ef01e35c81bb551dfa2]
class Capability--><g id="elem_Capability"><rect codeLine="197" fill="#9397B2" filter="url(#fkouufip2zsl0)" height="157.8125" id="Capability" rx="20" ry="20" style="stroke:#0077B6;stroke-width:0.5;" width="208" x="2094" y="487"/><ellipse cx="2160.5" cy="502.9844" fill="#A9DCDF" rx="10" ry="10" style="stroke:#181818;stroke-width:1.0;"/><path d="M2161.9844,504.0938 L2162.2656,504.7813 L2161.9844,504.7813 C2161.6875,504.7813 2161.5938,504.7969 2161.4844,504.875 C2161.3125,504.9688 2161.2031,505.1875 2161.2031,505.3906 C2161.2031,505.5781 2161.2969,505.75 2161.4531,505.8594 C2161.5625,505.9531 2161.7031,505.9844 2161.9844,505.9844 L2163.6563,505.9844 C2163.9063,505.9844 2164.0625,505.9531 2164.1563,505.9063 C2164.3438,505.7969 2164.4531,505.5938 2164.4531,505.3906 C2164.4531,505.1875 2164.3594,505.0156 2164.2031,504.9063 C2164.0781,504.8125 2163.9688,504.7813 2163.6406,504.7813 L2161.25,498.9844 L2158.6563,498.9844 C2158.3281,498.9844 2158.25,499 2158.1406,499.0781 C2157.9531,499.1875 2157.8594,499.3906 2157.8594,499.5938 C2157.8594,499.7813 2157.9531,499.9531 2158.1094,500.0781 C2158.2188,500.1719 2158.3438,500.1875 2158.6563,500.1875 L2159.4063,500.1875 L2157.5469,504.7813 C2157.25,504.7813 2157.1406,504.7969 2157.0313,504.875 C2156.8594,504.9688 2156.75,505.1875 2156.75,505.3906 C2156.75,505.7813 2157.0156,505.9844 2157.5469,505.9844 L2159.1406,505.9844 C2159.3906,505.9844 2159.5469,505.9531 2159.6406,505.9063 C2159.8125,505.7969 2159.9219,505.5938 2159.9219,505.3906 C2159.9219,505.1875 2159.8281,505.0156 2159.6719,504.8906 C2159.5625,504.8125 2159.4531,504.7813 2159.1406,504.7813 L2158.8594,504.7813 L2159.1406,504.0938 L2161.9844,504.0938 Z M2161.5,502.8906 L2159.6094,502.8906 L2160.5625,500.5781 L2161.5,502.8906 Z " fill="#EEEEEE"/><text fill="#03045E" font-family="sans-serif" font-size="12" font-style="italic" lengthAdjust="spacing" textLength="59" x="2183.5" y="507.1387">Capability</text><line style="stroke:#0077B6;stroke-width:0.5;" x1="2095" x2="2301" y1="518.9688" y2="518.9688"/><ellipse cx="2105" cy="529.9688" fill="none" rx="3" ry="3" style="stroke:#038048;stroke-width:1.0;"/><text fill="#03045E" font-family="sans-serif" font-size="12" lengthAdjust="spacing" textLength="98" x="2117" y="538.1074">name: rdfs:label</text><ellipse cx="2105" cy="551.9375" fill="none" rx="3" ry="3" style="stroke:#038048;stroke-width:1.0;"/><text fill="#03045E" font-family="sans-serif" font-size="12" lengthAdjust="spacing" textLength="132" x="2117" y="560.0762">tagline: rdfs:comment</text><ellipse cx="2105" cy="573.9063" fill="none" rx="3" ry="3" style="stroke:#038048;stroke-width:1.0;"/><text fill="#03045E" font-family="sans-serif" font-size="12" lengthAdjust="spacing" textLength="154" x="2117" y="582.0449">summary: dct:description</text><ellipse cx="2105" cy="595.875" fill="none" rx="3" ry="3" style="stroke:#038048;stroke-width:1.0;"/><text fill="#03045E" font-family="sans-serif" font-size="12" lengthAdjust="spacing" textLength="175" x="2117" y="604.0137">parent: Optional&lt;Capability&gt;</text><ellipse cx="2105" cy="617.8438" fill="none" rx="3" ry="3" style="stroke:#038048;stroke-width:1.0;"/><text fill="#03045E" font-family="sans-serif" font-size="12" lengthAdjust="spacing" textLength="83" x="2117" y="625.9824">model: Model</text><line style="stroke:#0077B6;stroke-width:0.5;" x1="2095" x2="2301" y1="636.8125" y2="636.8125"/></g><g id="elem_N1"><path d="M3339,556 L3339,575.9063 A20,20 0 0 0 3359,595.9063 L3433,595.9063 A20,20 0 0 0 3453,575.9063 L3453,546 L3443,536 L3359,536 A20,20 0 0 0 3339,556 " fill="#FEFFDD" filter="url(#fkouufip2zsl0)" style="stroke:#181818;stroke-width:0.5;"/><path d="M3443,536 L3443,536 A10,10 0 0 0 3453,546 L3453,546 L3443,536 " fill="#FEFFDD" style="stroke:#181818;stroke-width:1.0;"/><text fill="#EEEEEE" font-family="sans-serif" font-size="12" lengthAdjust="spacing" textLength="45" x="3349" y="556.1387">defines</text><text fill="#EEEEEE" font-family="sans-serif" font-size="12" font-weight="bold" lengthAdjust="spacing" textLength="36" x="3398" y="556.1387">what</text><text fill="#EEEEEE" font-family="sans-serif" font-size="12" lengthAdjust="spacing" textLength="65" x="3349" y="570.1074">a business</text><text fill="#EEEEEE" font-family="sans-serif" font-size="12" lengthAdjust="spacing" textLength="31" x="3349" y="584.0762">does</text></g><!--MD5=[48f3455628bc4f8b644d9e2eef9d24b8]
class BusinessCapabilityMap--><g id="elem_BusinessCapabilityMap"><rect codeLine="209" fill="#9397B2" filter="url(#fkouufip2zsl0)" height="69.9375" id="BusinessCapabilityMap" rx="20" ry="20" style="stroke:#0077B6;stroke-width:0.5;" width="231" x="3072.5" y="531"/><ellipse cx="3111.7" cy="546.9844" fill="#ADD1B2" rx="10" ry="10" style="stroke:#181818;stroke-width:1.0;"/><path d="M3113.5594,543.7344 C3112.9031,543.4219 3112.4813,543.3281 3111.8563,543.3281 C3110.0125,543.3281 3108.5906,544.7813 3108.5906,546.7031 L3108.5906,547.5 C3108.5906,549.3281 3110.0906,550.6563 3112.1219,550.6563 C3112.9813,550.6563 3113.8094,550.4375 3114.325,550.0469 C3114.7469,549.7656 3114.9656,549.4531 3114.9656,549.1719 C3114.9656,548.8594 3114.6844,548.5781 3114.3719,548.5781 C3114.2156,548.5781 3114.075,548.6406 3113.9344,548.7656 C3113.6063,549.1094 3113.6063,549.1094 3113.4813,549.1719 C3113.1844,549.3594 3112.7,549.4531 3112.1531,549.4531 C3110.7156,549.4531 3109.7938,548.6719 3109.7938,547.4688 L3109.7938,546.7031 C3109.7938,545.4375 3110.6844,544.5156 3111.9031,544.5156 C3112.3094,544.5156 3112.7469,544.625 3113.075,544.8125 C3113.4188,545 3113.5438,545.1563 3113.6063,545.4375 C3113.6531,545.7344 3113.6688,545.8125 3113.7625,545.9063 C3113.8563,546.0156 3114.0281,546.0781 3114.1844,546.0781 C3114.3875,546.0781 3114.5594,545.9844 3114.6844,545.8281 C3114.7625,545.7188 3114.7938,545.5938 3114.7938,545.2813 L3114.7938,544.2813 C3114.7938,543.9844 3114.7781,543.8906 3114.7,543.7813 C3114.5906,543.5938 3114.4031,543.4844 3114.1844,543.4844 C3113.9813,543.4844 3113.8406,543.5625 3113.6844,543.7813 L3113.5594,543.7344 Z " fill="#EEEEEE"/><text fill="#03045E" font-family="sans-serif" font-size="12" lengthAdjust="spacing" textLength="137" x="3134.3" y="551.1387">BusinessCapabilityMap</text><line style="stroke:#0077B6;stroke-width:0.5;" x1="3073.5" x2="3302.5" y1="562.9688" y2="562.9688"/><ellipse cx="3083.5" cy="573.9688" fill="none" rx="3" ry="3" style="stroke:#038048;stroke-width:1.0;"/><text fill="#03045E" font-family="sans-serif" font-size="12" lengthAdjust="spacing" textLength="198" x="3095.5" y="582.1074">capabilities: BusinessCapability[]</text><line style="stroke:#0077B6;stroke-width:0.5;" x1="3073.5" x2="3302.5" y1="592.9375" y2="592.9375"/></g><!--MD5=[942a70005fe1249f17c0706a35c3b997]
class BusinessCapability--><g id="elem_BusinessCapability"><rect codeLine="212" fill="#9397B2" filter="url(#fkouufip2zsl0)" height="69.9375" id="BusinessCapability" rx="20" ry="20" style="stroke:#0077B6;stroke-width:0.5;" width="184" x="3072" y="852"/><ellipse cx="3101.3" cy="867.9844" fill="#ADD1B2" rx="10" ry="10" style="stroke:#181818;stroke-width:1.0;"/><path d="M3103.1594,864.7344 C3102.5031,864.4219 3102.0813,864.3281 3101.4563,864.3281 C3099.6125,864.3281 3098.1906,865.7813 3098.1906,867.7031 L3098.1906,868.5 C3098.1906,870.3281 3099.6906,871.6563 3101.7219,871.6563 C3102.5813,871.6563 3103.4094,871.4375 3103.925,871.0469 C3104.3469,870.7656 3104.5656,870.4531 3104.5656,870.1719 C3104.5656,869.8594 3104.2844,869.5781 3103.9719,869.5781 C3103.8156,869.5781 3103.675,869.6406 3103.5344,869.7656 C3103.2063,870.1094 3103.2063,870.1094 3103.0813,870.1719 C3102.7844,870.3594 3102.3,870.4531 3101.7531,870.4531 C3100.3156,870.4531 3099.3938,869.6719 3099.3938,868.4688 L3099.3938,867.7031 C3099.3938,866.4375 3100.2844,865.5156 3101.5031,865.5156 C3101.9094,865.5156 3102.3469,865.625 3102.675,865.8125 C3103.0188,866 3103.1438,866.1563 3103.2063,866.4375 C3103.2531,866.7344 3103.2688,866.8125 3103.3625,866.9063 C3103.4563,867.0156 3103.6281,867.0781 3103.7844,867.0781 C3103.9875,867.0781 3104.1594,866.9844 3104.2844,866.8281 C3104.3625,866.7188 3104.3938,866.5938 3104.3938,866.2813 L3104.3938,865.2813 C3104.3938,864.9844 3104.3781,864.8906 3104.3,864.7813 C3104.1906,864.5938 3104.0031,864.4844 3103.7844,864.4844 C3103.5813,864.4844 3103.4406,864.5625 3103.2844,864.7813 L3103.1594,864.7344 Z " fill="#EEEEEE"/><text fill="#03045E" font-family="sans-serif" font-size="12" lengthAdjust="spacing" textLength="112" x="3121.7" y="872.1387">BusinessCapability</text><line style="stroke:#0077B6;stroke-width:0.5;" x1="3073" x2="3255" y1="883.9688" y2="883.9688"/><ellipse cx="3083" cy="894.9688" fill="none" rx="3" ry="3" style="stroke:#038048;stroke-width:1.0;"/><text fill="#03045E" font-family="sans-serif" font-size="12" lengthAdjust="spacing" textLength="151" x="3095" y="903.1074">delivered_by: UseCase[]</text><line style="stroke:#0077B6;stroke-width:0.5;" x1="3073" x2="3255" y1="913.9375" y2="913.9375"/></g><g id="elem_N2"><path d="M885,542 L885,589.8438 A20,20 0 0 0 905,609.8438 L1001,609.8438 A20,20 0 0 0 1021,589.8438 L1021,532 L1011,522 L905,522 A20,20 0 0 0 885,542 " fill="#FEFFDD" filter="url(#fkouufip2zsl0)" style="stroke:#181818;stroke-width:0.5;"/><path d="M1011,522 L1011,522 A10,10 0 0 0 1021,532 L1021,532 L1011,522 " fill="#FEFFDD" style="stroke:#181818;stroke-width:1.0;"/><text fill="#EEEEEE" font-family="sans-serif" font-size="12" lengthAdjust="spacing" textLength="45" x="895" y="542.1387">defines</text><text fill="#EEEEEE" font-family="sans-serif" font-size="12" font-weight="bold" lengthAdjust="spacing" textLength="36" x="944" y="542.1387">what</text><text fill="#EEEEEE" font-family="sans-serif" font-size="12" lengthAdjust="spacing" textLength="107" x="895" y="556.1074">a business needs</text><text fill="#EEEEEE" font-family="sans-serif" font-size="12" lengthAdjust="spacing" textLength="97" x="895" y="570.0762">for EKG maturity</text><text fill="#EEEEEE" font-family="sans-serif" font-size="12" lengthAdjust="spacing" textLength="76" x="895" y="584.0449">and how it is</text><text fill="#EEEEEE" font-family="sans-serif" font-size="12" lengthAdjust="spacing" textLength="97" x="895" y="598.0137">affected by EKG</text></g><!--MD5=[b6f50aecf8da0d0c6b6d8781b92eb484]
class MaturityModel--><g id="elem_MaturityModel"><rect codeLine="225" fill="#9397B2" filter="url(#fkouufip2zsl0)" height="91.9063" id="MaturityModel" rx="20" ry="20" style="stroke:#0077B6;stroke-width:0.5;" width="122" x="1066" y="520"/><ellipse cx="1080" cy="535.9844" fill="#ADD1B2" rx="10" ry="10" style="stroke:#181818;stroke-width:1.0;"/><path d="M1081.8594,532.7344 C1081.2031,532.4219 1080.7813,532.3281 1080.1563,532.3281 C1078.3125,532.3281 1076.8906,533.7813 1076.8906,535.7031 L1076.8906,536.5 C1076.8906,538.3281 1078.3906,539.6563 1080.4219,539.6563 C1081.2813,539.6563 1082.1094,539.4375 1082.625,539.0469 C1083.0469,538.7656 1083.2656,538.4531 1083.2656,538.1719 C1083.2656,537.8594 1082.9844,537.5781 1082.6719,537.5781 C1082.5156,537.5781 1082.375,537.6406 1082.2344,537.7656 C1081.9063,538.1094 1081.9063,538.1094 1081.7813,538.1719 C1081.4844,538.3594 1081,538.4531 1080.4531,538.4531 C1079.0156,538.4531 1078.0938,537.6719 1078.0938,536.4688 L1078.0938,535.7031 C1078.0938,534.4375 1078.9844,533.5156 1080.2031,533.5156 C1080.6094,533.5156 1081.0469,533.625 1081.375,533.8125 C1081.7188,534 1081.8438,534.1563 1081.9063,534.4375 C1081.9531,534.7344 1081.9688,534.8125 1082.0625,534.9063 C1082.1563,535.0156 1082.3281,535.0781 1082.4844,535.0781 C1082.6875,535.0781 1082.8594,534.9844 1082.9844,534.8281 C1083.0625,534.7188 1083.0938,534.5938 1083.0938,534.2813 L1083.0938,533.2813 C1083.0938,532.9844 1083.0781,532.8906 1083,532.7813 C1082.8906,532.5938 1082.7031,532.4844 1082.4844,532.4844 C1082.2813,532.4844 1082.1406,532.5625 1081.9844,532.7813 L1081.8594,532.7344 Z " fill="#EEEEEE"/><text fill="#03045E" font-family="sans-serif" font-size="12" lengthAdjust="spacing" textLength="84" x="1097" y="540.1387">MaturityModel</text><line style="stroke:#0077B6;stroke-width:0.5;" x1="1067" x2="1187" y1="551.9688" y2="551.9688"/><ellipse cx="1077" cy="562.9688" fill="none" rx="3" ry="3" style="stroke:#038048;stroke-width:1.0;"/><text fill="#03045E" font-family="sans-serif" font-size="12" lengthAdjust="spacing" textLength="81" x="1089" y="571.1074">pillars: Pillar[]</text><ellipse cx="1077" cy="584.9375" fill="none" rx="3" ry="3" style="stroke:#038048;stroke-width:1.0;"/><text fill="#03045E" font-family="sans-serif" font-size="12" lengthAdjust="spacing" textLength="86" x="1089" y="593.0762">levels: Level[]</text><line style="stroke:#0077B6;stroke-width:0.5;" x1="1067" x2="1187" y1="603.9063" y2="603.9063"/></g><!--MD5=[8d6492e71e7c94bcec1b0b6fac7c9da0]
class Pillar--><g id="elem_Pillar"><rect codeLine="229" fill="#9397B2" filter="url(#fkouufip2zsl0)" height="135.8438" id="Pillar" rx="20" ry="20" style="stroke:#0077B6;stroke-width:0.5;" width="219" x="869.5" y="819"/><ellipse cx="957.5" cy="834.9844" fill="#ADD1B2" rx="10" ry="10" style="stroke:#181818;stroke-width:1.0;"/><path d="M959.3594,831.7344 C958.7031,831.4219 958.2813,831.3281 957.6563,831.3281 C955.8125,831.3281 954.3906,832.7813 954.3906,834.7031 L954.3906,835.5 C954.3906,837.3281 955.8906,838.6563 957.9219,838.6563 C958.7813,838.6563 959.6094,838.4375 960.125,838.0469 C960.5469,837.7656 960.7656,837.4531 960.7656,837.1719 C960.7656,836.8594 960.4844,836.5781 960.1719,836.5781 C960.0156,836.5781 959.875,836.6406 959.7344,836.7656 C959.4063,837.1094 959.4063,837.1094 959.2813,837.1719 C958.9844,837.3594 958.5,837.4531 957.9531,837.4531 C956.5156,837.4531 955.5938,836.6719 955.5938,835.4688 L955.5938,834.7031 C955.5938,833.4375 956.4844,832.5156 957.7031,832.5156 C958.1094,832.5156 958.5469,832.625 958.875,832.8125 C959.2188,833 959.3438,833.1563 959.4063,833.4375 C959.4531,833.7344 959.4688,833.8125 959.5625,833.9063 C959.6563,834.0156 959.8281,834.0781 959.9844,834.0781 C960.1875,834.0781 960.3594,833.9844 960.4844,833.8281 C960.5625,833.7188 960.5938,833.5938 960.5938,833.2813 L960.5938,832.2813 C960.5938,831.9844 960.5781,831.8906 960.5,831.7813 C960.3906,831.5938 960.2031,831.4844 959.9844,831.4844 C959.7813,831.4844 959.6406,831.5625 959.4844,831.7813 L959.3594,831.7344 Z " fill="#EEEEEE"/><text fill="#03045E" font-family="sans-serif" font-size="12" lengthAdjust="spacing" textLength="27" x="980.5" y="839.1387">Pillar</text><line style="stroke:#0077B6;stroke-width:0.5;" x1="870.5" x2="1087.5" y1="850.9688" y2="850.9688"/><ellipse cx="880.5" cy="861.9688" fill="none" rx="3" ry="3" style="stroke:#038048;stroke-width:1.0;"/><text fill="#03045E" font-family="sans-serif" font-size="12" lengthAdjust="spacing" textLength="33" x="892.5" y="870.1074">name</text><ellipse cx="880.5" cy="883.9375" fill="none" rx="3" ry="3" style="stroke:#038048;stroke-width:1.0;"/><text fill="#03045E" font-family="sans-serif" font-size="12" lengthAdjust="spacing" textLength="186" x="892.5" y="892.0762">summary: markdown_fragment</text><ellipse cx="880.5" cy="905.9063" fill="none" rx="3" ry="3" style="stroke:#038048;stroke-width:1.0;"/><text fill="#03045E" font-family="sans-serif" font-size="12" lengthAdjust="spacing" textLength="121" x="892.5" y="914.0449">audience: Persona[]</text><ellipse cx="880.5" cy="927.875" fill="none" rx="3" ry="3" style="stroke:#038048;stroke-width:1.0;"/><text fill="#03045E" font-family="sans-serif" font-size="12" lengthAdjust="spacing" textLength="80" x="892.5" y="936.0137">areas: Area[]</text><line style="stroke:#0077B6;stroke-width:0.5;" x1="870.5" x2="1087.5" y1="946.8438" y2="946.8438"/></g><!--MD5=[7cfcec95ce8c7b3cc21f2a5540b61e10]
class Area--><g id="elem_Area"><rect codeLine="235" fill="#9397B2" filter="url(#fkouufip2zsl0)" height="69.9375" id="Area" rx="20" ry="20" style="stroke:#0077B6;stroke-width:0.5;" width="251" x="887.5" y="1192"/><ellipse cx="991" cy="1207.9844" fill="#ADD1B2" rx="10" ry="10" style="stroke:#181818;stroke-width:1.0;"/><path d="M992.8594,1204.7344 C992.2031,1204.4219 991.7813,1204.3281 991.1563,1204.3281 C989.3125,1204.3281 987.8906,1205.7813 987.8906,1207.7031 L987.8906,1208.5 C987.8906,1210.3281 989.3906,1211.6563 991.4219,1211.6563 C992.2813,1211.6563 993.1094,1211.4375 993.625,1211.0469 C994.0469,1210.7656 994.2656,1210.4531 994.2656,1210.1719 C994.2656,1209.8594 993.9844,1209.5781 993.6719,1209.5781 C993.5156,1209.5781 993.375,1209.6406 993.2344,1209.7656 C992.9063,1210.1094 992.9063,1210.1094 992.7813,1210.1719 C992.4844,1210.3594 992,1210.4531 991.4531,1210.4531 C990.0156,1210.4531 989.0938,1209.6719 989.0938,1208.4688 L989.0938,1207.7031 C989.0938,1206.4375 989.9844,1205.5156 991.2031,1205.5156 C991.6094,1205.5156 992.0469,1205.625 992.375,1205.8125 C992.7188,1206 992.8438,1206.1563 992.9063,1206.4375 C992.9531,1206.7344 992.9688,1206.8125 993.0625,1206.9063 C993.1563,1207.0156 993.3281,1207.0781 993.4844,1207.0781 C993.6875,1207.0781 993.8594,1206.9844 993.9844,1206.8281 C994.0625,1206.7188 994.0938,1206.5938 994.0938,1206.2813 L994.0938,1205.2813 C994.0938,1204.9844 994.0781,1204.8906 994,1204.7813 C993.8906,1204.5938 993.7031,1204.4844 993.4844,1204.4844 C993.2813,1204.4844 993.1406,1204.5625 992.9844,1204.7813 L992.8594,1204.7344 Z " fill="#EEEEEE"/><text fill="#03045E" font-family="sans-serif" font-size="12" lengthAdjust="spacing" textLength="28" x="1014" y="1212.1387">Area</text><line style="stroke:#0077B6;stroke-width:0.5;" x1="888.5" x2="1137.5" y1="1223.9688" y2="1223.9688"/><ellipse cx="898.5" cy="1234.9688" fill="none" rx="3" ry="3" style="stroke:#038048;stroke-width:1.0;"/><text fill="#03045E" font-family="sans-serif" font-size="12" lengthAdjust="spacing" textLength="218" x="910.5" y="1243.1074">capabilities: MaturityModelCapability</text><line style="stroke:#0077B6;stroke-width:0.5;" x1="888.5" x2="1137.5" y1="1253.9375" y2="1253.9375"/></g><!--MD5=[eedde156c9dded963040b22578af45fa]
class Level--><g id="elem_Level"><rect codeLine="238" fill="#9397B2" filter="url(#fkouufip2zsl0)" height="47.9688" id="Level" rx="20" ry="20" style="stroke:#0077B6;stroke-width:0.5;" width="70" x="1124" y="863"/><ellipse cx="1138" cy="878.9844" fill="#ADD1B2" rx="10" ry="10" style="stroke:#181818;stroke-width:1.0;"/><path d="M1139.8594,875.7344 C1139.2031,875.4219 1138.7813,875.3281 1138.1563,875.3281 C1136.3125,875.3281 1134.8906,876.7813 1134.8906,878.7031 L1134.8906,879.5 C1134.8906,881.3281 1136.3906,882.6563 1138.4219,882.6563 C1139.2813,882.6563 1140.1094,882.4375 1140.625,882.0469 C1141.0469,881.7656 1141.2656,881.4531 1141.2656,881.1719 C1141.2656,880.8594 1140.9844,880.5781 1140.6719,880.5781 C1140.5156,880.5781 1140.375,880.6406 1140.2344,880.7656 C1139.9063,881.1094 1139.9063,881.1094 1139.7813,881.1719 C1139.4844,881.3594 1139,881.4531 1138.4531,881.4531 C1137.0156,881.4531 1136.0938,880.6719 1136.0938,879.4688 L1136.0938,878.7031 C1136.0938,877.4375 1136.9844,876.5156 1138.2031,876.5156 C1138.6094,876.5156 1139.0469,876.625 1139.375,876.8125 C1139.7188,877 1139.8438,877.1563 1139.9063,877.4375 C1139.9531,877.7344 1139.9688,877.8125 1140.0625,877.9063 C1140.1563,878.0156 1140.3281,878.0781 1140.4844,878.0781 C1140.6875,878.0781 1140.8594,877.9844 1140.9844,877.8281 C1141.0625,877.7188 1141.0938,877.5938 1141.0938,877.2813 L1141.0938,876.2813 C1141.0938,875.9844 1141.0781,875.8906 1141,875.7813 C1140.8906,875.5938 1140.7031,875.4844 1140.4844,875.4844 C1140.2813,875.4844 1140.1406,875.5625 1139.9844,875.7813 L1139.8594,875.7344 Z " fill="#EEEEEE"/><text fill="#03045E" font-family="sans-serif" font-size="12" lengthAdjust="spacing" textLength="32" x="1155" y="883.1387">Level</text><line style="stroke:#0077B6;stroke-width:0.5;" x1="1125" x2="1193" y1="894.9688" y2="894.9688"/><line style="stroke:#0077B6;stroke-width:0.5;" x1="1125" x2="1193" y1="902.9688" y2="902.9688"/></g><!--MD5=[bd8262f609e796804ffc5a0eb0e0839e]
class MaturityModelCapability--><g id="elem_MaturityModelCapability"><rect codeLine="239" fill="#9397B2" filter="url(#fkouufip2zsl0)" height="113.875" id="MaturityModelCapability" rx="20" ry="20" style="stroke:#0077B6;stroke-width:0.5;" width="322" x="872" y="1446"/><ellipse cx="954" cy="1461.9844" fill="#ADD1B2" rx="10" ry="10" style="stroke:#181818;stroke-width:1.0;"/><path d="M955.8594,1458.7344 C955.2031,1458.4219 954.7813,1458.3281 954.1563,1458.3281 C952.3125,1458.3281 950.8906,1459.7813 950.8906,1461.7031 L950.8906,1462.5 C950.8906,1464.3281 952.3906,1465.6563 954.4219,1465.6563 C955.2813,1465.6563 956.1094,1465.4375 956.625,1465.0469 C957.0469,1464.7656 957.2656,1464.4531 957.2656,1464.1719 C957.2656,1463.8594 956.9844,1463.5781 956.6719,1463.5781 C956.5156,1463.5781 956.375,1463.6406 956.2344,1463.7656 C955.9063,1464.1094 955.9063,1464.1094 955.7813,1464.1719 C955.4844,1464.3594 955,1464.4531 954.4531,1464.4531 C953.0156,1464.4531 952.0938,1463.6719 952.0938,1462.4688 L952.0938,1461.7031 C952.0938,1460.4375 952.9844,1459.5156 954.2031,1459.5156 C954.6094,1459.5156 955.0469,1459.625 955.375,1459.8125 C955.7188,1460 955.8438,1460.1563 955.9063,1460.4375 C955.9531,1460.7344 955.9688,1460.8125 956.0625,1460.9063 C956.1563,1461.0156 956.3281,1461.0781 956.4844,1461.0781 C956.6875,1461.0781 956.8594,1460.9844 956.9844,1460.8281 C957.0625,1460.7188 957.0938,1460.5938 957.0938,1460.2813 L957.0938,1459.2813 C957.0938,1458.9844 957.0781,1458.8906 957,1458.7813 C956.8906,1458.5938 956.7031,1458.4844 956.4844,1458.4844 C956.2813,1458.4844 956.1406,1458.5625 955.9844,1458.7813 L955.8594,1458.7344 Z " fill="#EEEEEE"/><text fill="#03045E" font-family="sans-serif" font-size="12" lengthAdjust="spacing" textLength="142" x="977" y="1466.1387">MaturityModelCapability</text><line style="stroke:#0077B6;stroke-width:0.5;" x1="873" x2="1193" y1="1477.9688" y2="1477.9688"/><ellipse cx="883" cy="1488.9688" fill="none" rx="3" ry="3" style="stroke:#038048;stroke-width:1.0;"/><text fill="#03045E" font-family="sans-serif" font-size="12" lengthAdjust="spacing" textLength="249" x="895" y="1497.1074">contribution_to_ekg: markdown_fragment</text><ellipse cx="883" cy="1510.9375" fill="none" rx="3" ry="3" style="stroke:#038048;stroke-width:1.0;"/><text fill="#03045E" font-family="sans-serif" font-size="12" lengthAdjust="spacing" textLength="289" x="895" y="1519.0762">contribution_to_enterprise: markdown_fragment</text><ellipse cx="883" cy="1532.9063" fill="none" rx="3" ry="3" style="stroke:#038048;stroke-width:1.0;"/><text fill="#03045E" font-family="sans-serif" font-size="12" lengthAdjust="spacing" textLength="150" x="895" y="1541.0449">dimensions: Dimension[]</text><line style="stroke:#0077B6;stroke-width:0.5;" x1="873" x2="1193" y1="1551.875" y2="1551.875"/></g><!--MD5=[bfd2418b046a7d4e4bea09e7ac87d703]
class UseCase--><g id="elem_UseCase"><rect codeLine="247" fill="#9397B2" filter="url(#fkouufip2zsl0)" height="113.875" id="UseCase" rx="20" ry="20" style="stroke:#0077B6;stroke-width:0.5;" width="174" x="1741" y="830"/><ellipse cx="1793" cy="845.9844" fill="#ADD1B2" rx="10" ry="10" style="stroke:#181818;stroke-width:1.0;"/><path d="M1794.8594,842.7344 C1794.2031,842.4219 1793.7813,842.3281 1793.1563,842.3281 C1791.3125,842.3281 1789.8906,843.7813 1789.8906,845.7031 L1789.8906,846.5 C1789.8906,848.3281 1791.3906,849.6563 1793.4219,849.6563 C1794.2813,849.6563 1795.1094,849.4375 1795.625,849.0469 C1796.0469,848.7656 1796.2656,848.4531 1796.2656,848.1719 C1796.2656,847.8594 1795.9844,847.5781 1795.6719,847.5781 C1795.5156,847.5781 1795.375,847.6406 1795.2344,847.7656 C1794.9063,848.1094 1794.9063,848.1094 1794.7813,848.1719 C1794.4844,848.3594 1794,848.4531 1793.4531,848.4531 C1792.0156,848.4531 1791.0938,847.6719 1791.0938,846.4688 L1791.0938,845.7031 C1791.0938,844.4375 1791.9844,843.5156 1793.2031,843.5156 C1793.6094,843.5156 1794.0469,843.625 1794.375,843.8125 C1794.7188,844 1794.8438,844.1563 1794.9063,844.4375 C1794.9531,844.7344 1794.9688,844.8125 1795.0625,844.9063 C1795.1563,845.0156 1795.3281,845.0781 1795.4844,845.0781 C1795.6875,845.0781 1795.8594,844.9844 1795.9844,844.8281 C1796.0625,844.7188 1796.0938,844.5938 1796.0938,844.2813 L1796.0938,843.2813 C1796.0938,842.9844 1796.0781,842.8906 1796,842.7813 C1795.8906,842.5938 1795.7031,842.4844 1795.4844,842.4844 C1795.2813,842.4844 1795.1406,842.5625 1794.9844,842.7813 L1794.8594,842.7344 Z " fill="#EEEEEE"/><text fill="#03045E" font-family="sans-serif" font-size="12" lengthAdjust="spacing" textLength="54" x="1816" y="850.1387">UseCase</text><line style="stroke:#0077B6;stroke-width:0.5;" x1="1742" x2="1914" y1="861.9688" y2="861.9688"/><rect fill="none" height="6" style="stroke:#C82930;stroke-width:1.0;" width="6" x="1749" y="869.9688"/><text fill="#03045E" font-family="sans-serif" font-size="12" lengthAdjust="spacing" textLength="141" x="1764" y="881.1074">vocabulary: Vocabulary</text><rect fill="none" height="6" style="stroke:#C82930;stroke-width:1.0;" width="6" x="1749" y="891.9375"/><text fill="#03045E" font-family="sans-serif" font-size="12" lengthAdjust="spacing" textLength="92" x="1764" y="903.0762">stories: Story[]</text><rect fill="none" height="6" style="stroke:#C82930;stroke-width:1.0;" width="6" x="1749" y="913.9063"/><text fill="#03045E" font-family="sans-serif" font-size="12" lengthAdjust="spacing" textLength="123" x="1764" y="925.0449">personas: Persona[]</text><line style="stroke:#0077B6;stroke-width:0.5;" x1="1742" x2="1914" y1="935.875" y2="935.875"/></g><!--MD5=[b8198f8fbe707aa7c65b1598e49c1d3e]
class Story--><g id="elem_Story"><rect codeLine="252" fill="#9397B2" filter="url(#fkouufip2zsl0)" height="113.875" id="Story" rx="20" ry="20" style="stroke:#0077B6;stroke-width:0.5;" width="156" x="1550" y="830"/><ellipse cx="1604" cy="845.9844" fill="#ADD1B2" rx="10" ry="10" style="stroke:#181818;stroke-width:1.0;"/><path d="M1605.8594,842.7344 C1605.2031,842.4219 1604.7813,842.3281 1604.1563,842.3281 C1602.3125,842.3281 1600.8906,843.7813 1600.8906,845.7031 L1600.8906,846.5 C1600.8906,848.3281 1602.3906,849.6563 1604.4219,849.6563 C1605.2813,849.6563 1606.1094,849.4375 1606.625,849.0469 C1607.0469,848.7656 1607.2656,848.4531 1607.2656,848.1719 C1607.2656,847.8594 1606.9844,847.5781 1606.6719,847.5781 C1606.5156,847.5781 1606.375,847.6406 1606.2344,847.7656 C1605.9063,848.1094 1605.9063,848.1094 1605.7813,848.1719 C1605.4844,848.3594 1605,848.4531 1604.4531,848.4531 C1603.0156,848.4531 1602.0938,847.6719 1602.0938,846.4688 L1602.0938,845.7031 C1602.0938,844.4375 1602.9844,843.5156 1604.2031,843.5156 C1604.6094,843.5156 1605.0469,843.625 1605.375,843.8125 C1605.7188,844 1605.8438,844.1563 1605.9063,844.4375 C1605.9531,844.7344 1605.9688,844.8125 1606.0625,844.9063 C1606.1563,845.0156 1606.3281,845.0781 1606.4844,845.0781 C1606.6875,845.0781 1606.8594,844.9844 1606.9844,844.8281 C1607.0625,844.7188 1607.0938,844.5938 1607.0938,844.2813 L1607.0938,843.2813 C1607.0938,842.9844 1607.0781,842.8906 1607,842.7813 C1606.8906,842.5938 1606.7031,842.4844 1606.4844,842.4844 C1606.2813,842.4844 1606.1406,842.5625 1605.9844,842.7813 L1605.8594,842.7344 Z " fill="#EEEEEE"/><text fill="#03045E" font-family="sans-serif" font-size="12" lengthAdjust="spacing" textLength="32" x="1627" y="850.1387">Story</text><line style="stroke:#0077B6;stroke-width:0.5;" x1="1551" x2="1705" y1="861.9688" y2="861.9688"/><ellipse cx="1561" cy="872.9688" fill="none" rx="3" ry="3" style="stroke:#038048;stroke-width:1.0;"/><text fill="#03045E" font-family="sans-serif" font-size="12" lengthAdjust="spacing" textLength="83" x="1573" y="881.1074">as_a: Persona</text><ellipse cx="1561" cy="894.9375" fill="none" rx="3" ry="3" style="stroke:#038048;stroke-width:1.0;"/><text fill="#03045E" font-family="sans-serif" font-size="12" lengthAdjust="spacing" textLength="104" x="1573" y="903.0762">i_want_a: Feature</text><ellipse cx="1561" cy="916.9063" fill="none" rx="3" ry="3" style="stroke:#038048;stroke-width:1.0;"/><text fill="#03045E" font-family="sans-serif" font-size="12" lengthAdjust="spacing" textLength="123" x="1573" y="925.0449">delivering: Outcome</text><line style="stroke:#0077B6;stroke-width:0.5;" x1="1551" x2="1705" y1="935.875" y2="935.875"/></g><!--MD5=[651984b30145f63e53adab6e7e9bc4b7]
class Outcome--><g id="elem_Outcome"><rect codeLine="257" fill="#9397B2" filter="url(#fkouufip2zsl0)" height="47.9688" id="Outcome" rx="20" ry="20" style="stroke:#0077B6;stroke-width:0.5;" width="93" x="1421.5" y="863"/><ellipse cx="1435.5" cy="878.9844" fill="#ADD1B2" rx="10" ry="10" style="stroke:#181818;stroke-width:1.0;"/><path d="M1437.3594,875.7344 C1436.7031,875.4219 1436.2813,875.3281 1435.6563,875.3281 C1433.8125,875.3281 1432.3906,876.7813 1432.3906,878.7031 L1432.3906,879.5 C1432.3906,881.3281 1433.8906,882.6563 1435.9219,882.6563 C1436.7813,882.6563 1437.6094,882.4375 1438.125,882.0469 C1438.5469,881.7656 1438.7656,881.4531 1438.7656,881.1719 C1438.7656,880.8594 1438.4844,880.5781 1438.1719,880.5781 C1438.0156,880.5781 1437.875,880.6406 1437.7344,880.7656 C1437.4063,881.1094 1437.4063,881.1094 1437.2813,881.1719 C1436.9844,881.3594 1436.5,881.4531 1435.9531,881.4531 C1434.5156,881.4531 1433.5938,880.6719 1433.5938,879.4688 L1433.5938,878.7031 C1433.5938,877.4375 1434.4844,876.5156 1435.7031,876.5156 C1436.1094,876.5156 1436.5469,876.625 1436.875,876.8125 C1437.2188,877 1437.3438,877.1563 1437.4063,877.4375 C1437.4531,877.7344 1437.4688,877.8125 1437.5625,877.9063 C1437.6563,878.0156 1437.8281,878.0781 1437.9844,878.0781 C1438.1875,878.0781 1438.3594,877.9844 1438.4844,877.8281 C1438.5625,877.7188 1438.5938,877.5938 1438.5938,877.2813 L1438.5938,876.2813 C1438.5938,875.9844 1438.5781,875.8906 1438.5,875.7813 C1438.3906,875.5938 1438.2031,875.4844 1437.9844,875.4844 C1437.7813,875.4844 1437.6406,875.5625 1437.4844,875.7813 L1437.3594,875.7344 Z " fill="#EEEEEE"/><text fill="#03045E" font-family="sans-serif" font-size="12" lengthAdjust="spacing" textLength="55" x="1452.5" y="883.1387">Outcome</text><line style="stroke:#0077B6;stroke-width:0.5;" x1="1422.5" x2="1513.5" y1="894.9688" y2="894.9688"/><line style="stroke:#0077B6;stroke-width:0.5;" x1="1422.5" x2="1513.5" y1="902.9688" y2="902.9688"/></g><g id="elem_N3"><path d="M663.5,113 L663.5,118.9375 A20,20 0 0 0 683.5,138.9375 L792.5,138.9375 A20,20 0 0 0 812.5,118.9375 L812.5,103 L802.5,93 L683.5,93 A20,20 0 0 0 663.5,113 " fill="#FEFFDD" filter="url(#fkouufip2zsl0)" style="stroke:#181818;stroke-width:0.5;"/><path d="M802.5,93 L802.5,93 A10,10 0 0 0 812.5,103 L812.5,103 L802.5,93 " fill="#FEFFDD" style="stroke:#181818;stroke-width:1.0;"/><text fill="#EEEEEE" font-family="sans-serif" font-size="12" lengthAdjust="spacing" textLength="120" x="673.5" y="113.1387">define the language</text><text fill="#EEEEEE" font-family="sans-serif" font-size="12" lengthAdjust="spacing" textLength="70" x="673.5" y="127.1074">in a context</text></g><!--MD5=[d735ab5835a86bd3993176c7c18a6c38]
class ConceptScheme--><g id="elem_ConceptScheme"><rect codeLine="265" fill="#9397B2" filter="url(#fkouufip2zsl0)" height="47.9688" id="ConceptScheme" rx="20" ry="20" style="stroke:#0077B6;stroke-width:0.5;" width="170" x="458" y="92"/><ellipse cx="472" cy="107.9844" fill="#ADD1B2" rx="10" ry="10" style="stroke:#181818;stroke-width:1.0;"/><path d="M473.8594,104.7344 C473.2031,104.4219 472.7813,104.3281 472.1563,104.3281 C470.3125,104.3281 468.8906,105.7813 468.8906,107.7031 L468.8906,108.5 C468.8906,110.3281 470.3906,111.6563 472.4219,111.6563 C473.2813,111.6563 474.1094,111.4375 474.625,111.0469 C475.0469,110.7656 475.2656,110.4531 475.2656,110.1719 C475.2656,109.8594 474.9844,109.5781 474.6719,109.5781 C474.5156,109.5781 474.375,109.6406 474.2344,109.7656 C473.9063,110.1094 473.9063,110.1094 473.7813,110.1719 C473.4844,110.3594 473,110.4531 472.4531,110.4531 C471.0156,110.4531 470.0938,109.6719 470.0938,108.4688 L470.0938,107.7031 C470.0938,106.4375 470.9844,105.5156 472.2031,105.5156 C472.6094,105.5156 473.0469,105.625 473.375,105.8125 C473.7188,106 473.8438,106.1563 473.9063,106.4375 C473.9531,106.7344 473.9688,106.8125 474.0625,106.9063 C474.1563,107.0156 474.3281,107.0781 474.4844,107.0781 C474.6875,107.0781 474.8594,106.9844 474.9844,106.8281 C475.0625,106.7188 475.0938,106.5938 475.0938,106.2813 L475.0938,105.2813 C475.0938,104.9844 475.0781,104.8906 475,104.7813 C474.8906,104.5938 474.7031,104.4844 474.4844,104.4844 C474.2813,104.4844 474.1406,104.5625 473.9844,104.7813 L473.8594,104.7344 Z " fill="#EEEEEE"/><text fill="#03045E" font-family="sans-serif" font-size="12" lengthAdjust="spacing" textLength="132" x="489" y="112.1387">skos:ConceptScheme</text><line style="stroke:#0077B6;stroke-width:0.5;" x1="459" x2="627" y1="123.9688" y2="123.9688"/><line style="stroke:#0077B6;stroke-width:0.5;" x1="459" x2="627" y1="131.9688" y2="131.9688"/></g><!--MD5=[d1a41a49411a5ee256a33b9a91e61412]
class skosConcept--><g id="elem_skosConcept"><rect codeLine="267" fill="#9397B2" filter="url(#fkouufip2zsl0)" height="69.9375" id="skosConcept" rx="20" ry="20" style="stroke:#0077B6;stroke-width:0.5;" width="232" x="324" y="284"/><ellipse cx="390.5" cy="299.9844" fill="#ADD1B2" rx="10" ry="10" style="stroke:#181818;stroke-width:1.0;"/><path d="M392.3594,296.7344 C391.7031,296.4219 391.2813,296.3281 390.6563,296.3281 C388.8125,296.3281 387.3906,297.7813 387.3906,299.7031 L387.3906,300.5 C387.3906,302.3281 388.8906,303.6563 390.9219,303.6563 C391.7813,303.6563 392.6094,303.4375 393.125,303.0469 C393.5469,302.7656 393.7656,302.4531 393.7656,302.1719 C393.7656,301.8594 393.4844,301.5781 393.1719,301.5781 C393.0156,301.5781 392.875,301.6406 392.7344,301.7656 C392.4063,302.1094 392.4063,302.1094 392.2813,302.1719 C391.9844,302.3594 391.5,302.4531 390.9531,302.4531 C389.5156,302.4531 388.5938,301.6719 388.5938,300.4688 L388.5938,299.7031 C388.5938,298.4375 389.4844,297.5156 390.7031,297.5156 C391.1094,297.5156 391.5469,297.625 391.875,297.8125 C392.2188,298 392.3438,298.1563 392.4063,298.4375 C392.4531,298.7344 392.4688,298.8125 392.5625,298.9063 C392.6563,299.0156 392.8281,299.0781 392.9844,299.0781 C393.1875,299.0781 393.3594,298.9844 393.4844,298.8281 C393.5625,298.7188 393.5938,298.5938 393.5938,298.2813 L393.5938,297.2813 C393.5938,296.9844 393.5781,296.8906 393.5,296.7813 C393.3906,296.5938 393.2031,296.4844 392.9844,296.4844 C392.7813,296.4844 392.6406,296.5625 392.4844,296.7813 L392.3594,296.7344 Z " fill="#EEEEEE"/><text fill="#03045E" font-family="sans-serif" font-size="12" lengthAdjust="spacing" textLength="83" x="413.5" y="304.1387">skos:Concept</text><line style="stroke:#0077B6;stroke-width:0.5;" x1="325" x2="555" y1="315.9688" y2="315.9688"/><ellipse cx="335" cy="326.9688" fill="none" rx="3" ry="3" style="stroke:#038048;stroke-width:1.0;"/><text fill="#03045E" font-family="sans-serif" font-size="12" lengthAdjust="spacing" textLength="199" x="347" y="335.1074">skos:inScheme: ConceptScheme</text><line style="stroke:#0077B6;stroke-width:0.5;" x1="325" x2="555" y1="345.9375" y2="345.9375"/></g><g id="elem_GMN1237358"><path d="M255.5,120 L255.5,111.9688 A20,20 0 0 0 275.5,131.9688 L342.591,131.9688 L422.877,283.92 L350.591,131.9688 L402.5,131.9688 A20,20 0 0 0 422.5,111.9688 L422.5,110 L412.5,100 L275.5,100 A20,20 0 0 0 255.5,120 " fill="#FEFFDD" filter="url(#fkouufip2zsl0)" style="stroke:#181818;stroke-width:0.5;"/><path d="M412.5,100 L412.5,100 A10,10 0 0 0 422.5,110 L422.5,110 L412.5,100 " fill="#FEFFDD" style="stroke:#181818;stroke-width:0.5;"/><text fill="#EEEEEE" font-family="sans-serif" font-size="12" lengthAdjust="spacing" textLength="138" x="265.5" y="120.1387">any term for a concept</text></g><!--MD5=[8c91d2bf2d6310bf1ac238f8f5495da5]
class TechnicalIdentifier--><g id="elem_TechnicalIdentifier"><rect codeLine="271" fill="#9397B2" filter="url(#fkouufip2zsl0)" height="69.9375" id="TechnicalIdentifier" rx="20" ry="20" style="stroke:#0077B6;stroke-width:0.5;" width="147" x="462.5" y="531"/><ellipse cx="476.5" cy="546.9844" fill="#ADD1B2" rx="10" ry="10" style="stroke:#181818;stroke-width:1.0;"/><path d="M478.3594,543.7344 C477.7031,543.4219 477.2813,543.3281 476.6563,543.3281 C474.8125,543.3281 473.3906,544.7813 473.3906,546.7031 L473.3906,547.5 C473.3906,549.3281 474.8906,550.6563 476.9219,550.6563 C477.7813,550.6563 478.6094,550.4375 479.125,550.0469 C479.5469,549.7656 479.7656,549.4531 479.7656,549.1719 C479.7656,548.8594 479.4844,548.5781 479.1719,548.5781 C479.0156,548.5781 478.875,548.6406 478.7344,548.7656 C478.4063,549.1094 478.4063,549.1094 478.2813,549.1719 C477.9844,549.3594 477.5,549.4531 476.9531,549.4531 C475.5156,549.4531 474.5938,548.6719 474.5938,547.4688 L474.5938,546.7031 C474.5938,545.4375 475.4844,544.5156 476.7031,544.5156 C477.1094,544.5156 477.5469,544.625 477.875,544.8125 C478.2188,545 478.3438,545.1563 478.4063,545.4375 C478.4531,545.7344 478.4688,545.8125 478.5625,545.9063 C478.6563,546.0156 478.8281,546.0781 478.9844,546.0781 C479.1875,546.0781 479.3594,545.9844 479.4844,545.8281 C479.5625,545.7188 479.5938,545.5938 479.5938,545.2813 L479.5938,544.2813 C479.5938,543.9844 479.5781,543.8906 479.5,543.7813 C479.3906,543.5938 479.2031,543.4844 478.9844,543.4844 C478.7813,543.4844 478.6406,543.5625 478.4844,543.7813 L478.3594,543.7344 Z " fill="#EEEEEE"/><text fill="#03045E" font-family="sans-serif" font-size="12" lengthAdjust="spacing" textLength="109" x="493.5" y="551.1387">TechnicalIdentifier</text><line style="stroke:#0077B6;stroke-width:0.5;" x1="463.5" x2="608.5" y1="562.9688" y2="562.9688"/><ellipse cx="473.5" cy="573.9688" fill="none" rx="3" ry="3" style="stroke:#038048;stroke-width:1.0;"/><text fill="#03045E" font-family="sans-serif" font-size="12" lengthAdjust="spacing" textLength="55" x="485.5" y="582.1074">language</text><line style="stroke:#0077B6;stroke-width:0.5;" x1="463.5" x2="608.5" y1="592.9375" y2="592.9375"/></g><path d="M645,538 L645,556.9688 L544.5,577.9531 L645,564.9688 L645,583.9375 A0,0 0 0 0 645,583.9375 L813,583.9375 A0,0 0 0 0 813,583.9375 L813,548 L803,538 L645,538 A0,0 0 0 0 645,538 " fill="#FEFFDD" filter="url(#fkouufip2zsl0)" style="stroke:#181818;stroke-width:0.5;"/><path d="M803,538 L803,548 L813,548 L803,538 " fill="#FEFFDD" style="stroke:#181818;stroke-width:0.5;"/><text fill="#EEEEEE" font-family="sans-serif" font-size="12" lengthAdjust="spacing" textLength="139" x="655" y="558.1387">JavaScript, JSON, REST,</text><text fill="#EEEEEE" font-family="sans-serif" font-size="12" lengthAdjust="spacing" textLength="104" x="655" y="572.1074">SPARQL, SQL, etc</text><!--MD5=[7e2cc48cb9aa3d4765f102f260073ea9]
class UseCaseVocabulary--><g id="elem_UseCaseVocabulary"><rect codeLine="278" fill="#9397B2" filter="url(#fkouufip2zsl0)" height="91.9063" id="UseCaseVocabulary" rx="20" ry="20" style="stroke:#0077B6;stroke-width:0.5;" width="198" x="22" y="70"/><ellipse cx="53.55" cy="85.9844" fill="#ADD1B2" rx="10" ry="10" style="stroke:#181818;stroke-width:1.0;"/><path d="M55.4094,82.7344 C54.7531,82.4219 54.3313,82.3281 53.7063,82.3281 C51.8625,82.3281 50.4406,83.7813 50.4406,85.7031 L50.4406,86.5 C50.4406,88.3281 51.9406,89.6563 53.9719,89.6563 C54.8313,89.6563 55.6594,89.4375 56.175,89.0469 C56.5969,88.7656 56.8156,88.4531 56.8156,88.1719 C56.8156,87.8594 56.5344,87.5781 56.2219,87.5781 C56.0656,87.5781 55.925,87.6406 55.7844,87.7656 C55.4563,88.1094 55.4563,88.1094 55.3313,88.1719 C55.0344,88.3594 54.55,88.4531 54.0031,88.4531 C52.5656,88.4531 51.6438,87.6719 51.6438,86.4688 L51.6438,85.7031 C51.6438,84.4375 52.5344,83.5156 53.7531,83.5156 C54.1594,83.5156 54.5969,83.625 54.925,83.8125 C55.2688,84 55.3938,84.1563 55.4563,84.4375 C55.5031,84.7344 55.5188,84.8125 55.6125,84.9063 C55.7063,85.0156 55.8781,85.0781 56.0344,85.0781 C56.2375,85.0781 56.4094,84.9844 56.5344,84.8281 C56.6125,84.7188 56.6438,84.5938 56.6438,84.2813 L56.6438,83.2813 C56.6438,82.9844 56.6281,82.8906 56.55,82.7813 C56.4406,82.5938 56.2531,82.4844 56.0344,82.4844 C55.8313,82.4844 55.6906,82.5625 55.5344,82.7813 L55.4094,82.7344 Z " fill="#EEEEEE"/><text fill="#03045E" font-family="sans-serif" font-size="12" lengthAdjust="spacing" textLength="121" x="74.45" y="90.1387">UseCaseVocabulary</text><line style="stroke:#0077B6;stroke-width:0.5;" x1="23" x2="219" y1="101.9688" y2="101.9688"/><text fill="#03045E" font-family="sans-serif" font-size="12" lengthAdjust="spacing" textLength="178" x="32" y="121.1074">concepts: UseCaseConcept[]</text><text fill="#03045E" font-family="sans-serif" font-size="12" lengthAdjust="spacing" textLength="130" x="32" y="143.0762">usecases: UseCase[]</text><line style="stroke:#0077B6;stroke-width:0.5;" x1="23" x2="219" y1="153.9063" y2="153.9063"/></g><!--MD5=[c82af130cecdf53306a8e25ad8d6fc01]
class UseCaseConcept--><g id="elem_UseCaseConcept"><rect codeLine="282" fill="#9397B2" filter="url(#fkouufip2zsl0)" height="91.9063" id="UseCaseConcept" rx="20" ry="20" style="stroke:#0077B6;stroke-width:0.5;" width="236" x="191" y="520"/><ellipse cx="249" cy="535.9844" fill="#ADD1B2" rx="10" ry="10" style="stroke:#181818;stroke-width:1.0;"/><path d="M250.8594,532.7344 C250.2031,532.4219 249.7813,532.3281 249.1563,532.3281 C247.3125,532.3281 245.8906,533.7813 245.8906,535.7031 L245.8906,536.5 C245.8906,538.3281 247.3906,539.6563 249.4219,539.6563 C250.2813,539.6563 251.1094,539.4375 251.625,539.0469 C252.0469,538.7656 252.2656,538.4531 252.2656,538.1719 C252.2656,537.8594 251.9844,537.5781 251.6719,537.5781 C251.5156,537.5781 251.375,537.6406 251.2344,537.7656 C250.9063,538.1094 250.9063,538.1094 250.7813,538.1719 C250.4844,538.3594 250,538.4531 249.4531,538.4531 C248.0156,538.4531 247.0938,537.6719 247.0938,536.4688 L247.0938,535.7031 C247.0938,534.4375 247.9844,533.5156 249.2031,533.5156 C249.6094,533.5156 250.0469,533.625 250.375,533.8125 C250.7188,534 250.8438,534.1563 250.9063,534.4375 C250.9531,534.7344 250.9688,534.8125 251.0625,534.9063 C251.1563,535.0156 251.3281,535.0781 251.4844,535.0781 C251.6875,535.0781 251.8594,534.9844 251.9844,534.8281 C252.0625,534.7188 252.0938,534.5938 252.0938,534.2813 L252.0938,533.2813 C252.0938,532.9844 252.0781,532.8906 252,532.7813 C251.8906,532.5938 251.7031,532.4844 251.4844,532.4844 C251.2813,532.4844 251.1406,532.5625 250.9844,532.7813 L250.8594,532.7344 Z " fill="#EEEEEE"/><text fill="#03045E" font-family="sans-serif" font-size="12" lengthAdjust="spacing" textLength="104" x="272" y="540.1387">UseCaseConcept</text><line style="stroke:#0077B6;stroke-width:0.5;" x1="192" x2="426" y1="551.9688" y2="551.9688"/><text fill="#03045E" font-family="sans-serif" font-size="12" lengthAdjust="spacing" textLength="216" x="201" y="571.1074">vocabularies: UseCaseVocabulary[]</text><text fill="#03045E" font-family="sans-serif" font-size="12" lengthAdjust="spacing" textLength="132" x="201" y="593.0762">terms: skosConcept[]</text><line style="stroke:#0077B6;stroke-width:0.5;" x1="192" x2="426" y1="603.9063" y2="603.9063"/></g><!--MD5=[8f63dadf5c643e74a34e53c8f0a15d23]
class Persona--><g id="elem_Persona"><rect codeLine="286" fill="#9397B2" filter="url(#fkouufip2zsl0)" height="69.9375" id="Persona" rx="20" ry="20" style="stroke:#0077B6;stroke-width:0.5;" width="177" x="531.5" y="852"/><ellipse cx="588" cy="867.9844" fill="#ADD1B2" rx="10" ry="10" style="stroke:#181818;stroke-width:1.0;"/><path d="M589.8594,864.7344 C589.2031,864.4219 588.7813,864.3281 588.1563,864.3281 C586.3125,864.3281 584.8906,865.7813 584.8906,867.7031 L584.8906,868.5 C584.8906,870.3281 586.3906,871.6563 588.4219,871.6563 C589.2813,871.6563 590.1094,871.4375 590.625,871.0469 C591.0469,870.7656 591.2656,870.4531 591.2656,870.1719 C591.2656,869.8594 590.9844,869.5781 590.6719,869.5781 C590.5156,869.5781 590.375,869.6406 590.2344,869.7656 C589.9063,870.1094 589.9063,870.1094 589.7813,870.1719 C589.4844,870.3594 589,870.4531 588.4531,870.4531 C587.0156,870.4531 586.0938,869.6719 586.0938,868.4688 L586.0938,867.7031 C586.0938,866.4375 586.9844,865.5156 588.2031,865.5156 C588.6094,865.5156 589.0469,865.625 589.375,865.8125 C589.7188,866 589.8438,866.1563 589.9063,866.4375 C589.9531,866.7344 589.9688,866.8125 590.0625,866.9063 C590.1563,867.0156 590.3281,867.0781 590.4844,867.0781 C590.6875,867.0781 590.8594,866.9844 590.9844,866.8281 C591.0625,866.7188 591.0938,866.5938 591.0938,866.2813 L591.0938,865.2813 C591.0938,864.9844 591.0781,864.8906 591,864.7813 C590.8906,864.5938 590.7031,864.4844 590.4844,864.4844 C590.2813,864.4844 590.1406,864.5625 589.9844,864.7813 L589.8594,864.7344 Z " fill="#EEEEEE"/><text fill="#03045E" font-family="sans-serif" font-size="12" lengthAdjust="spacing" textLength="48" x="611" y="872.1387">Persona</text><line style="stroke:#0077B6;stroke-width:0.5;" x1="532.5" x2="707.5" y1="883.9688" y2="883.9688"/><ellipse cx="542.5" cy="894.9688" fill="none" rx="3" ry="3" style="stroke:#038048;stroke-width:1.0;"/><text fill="#03045E" font-family="sans-serif" font-size="12" lengthAdjust="spacing" textLength="144" x="554.5" y="903.1074">inherits_from: Persona[]</text><line style="stroke:#0077B6;stroke-width:0.5;" x1="532.5" x2="707.5" y1="913.9375" y2="913.9375"/></g><!--MD5=[798b653493d2d1d93374769a27a9ba0c]
class Dimension--><g id="elem_Dimension"><rect codeLine="291" fill="#9397B2" filter="url(#fkouufip2zsl0)" height="179.7813" id="Dimension" rx="20" ry="20" style="stroke:#0077B6;stroke-width:0.5;" width="177" x="1573.5" y="1137"/><ellipse cx="1622.5" cy="1152.9844" fill="#ADD1B2" rx="10" ry="10" style="stroke:#181818;stroke-width:1.0;"/><path d="M1624.3594,1149.7344 C1623.7031,1149.4219 1623.2813,1149.3281 1622.6563,1149.3281 C1620.8125,1149.3281 1619.3906,1150.7813 1619.3906,1152.7031 L1619.3906,1153.5 C1619.3906,1155.3281 1620.8906,1156.6563 1622.9219,1156.6563 C1623.7813,1156.6563 1624.6094,1156.4375 1625.125,1156.0469 C1625.5469,1155.7656 1625.7656,1155.4531 1625.7656,1155.1719 C1625.7656,1154.8594 1625.4844,1154.5781 1625.1719,1154.5781 C1625.0156,1154.5781 1624.875,1154.6406 1624.7344,1154.7656 C1624.4063,1155.1094 1624.4063,1155.1094 1624.2813,1155.1719 C1623.9844,1155.3594 1623.5,1155.4531 1622.9531,1155.4531 C1621.5156,1155.4531 1620.5938,1154.6719 1620.5938,1153.4688 L1620.5938,1152.7031 C1620.5938,1151.4375 1621.4844,1150.5156 1622.7031,1150.5156 C1623.1094,1150.5156 1623.5469,1150.625 1623.875,1150.8125 C1624.2188,1151 1624.3438,1151.1563 1624.4063,1151.4375 C1624.4531,1151.7344 1624.4688,1151.8125 1624.5625,1151.9063 C1624.6563,1152.0156 1624.8281,1152.0781 1624.9844,1152.0781 C1625.1875,1152.0781 1625.3594,1151.9844 1625.4844,1151.8281 C1625.5625,1151.7188 1625.5938,1151.5938 1625.5938,1151.2813 L1625.5938,1150.2813 C1625.5938,1149.9844 1625.5781,1149.8906 1625.5,1149.7813 C1625.3906,1149.5938 1625.2031,1149.4844 1624.9844,1149.4844 C1624.7813,1149.4844 1624.6406,1149.5625 1624.4844,1149.7813 L1624.3594,1149.7344 Z " fill="#EEEEEE"/><text fill="#03045E" font-family="sans-serif" font-size="12" lengthAdjust="spacing" textLength="63" x="1645.5" y="1157.1387">Dimension</text><line style="stroke:#0077B6;stroke-width:0.5;" x1="1574.5" x2="1749.5" y1="1168.9688" y2="1168.9688"/><rect fill="none" height="6" style="stroke:#C82930;stroke-width:1.0;" width="6" x="1581.5" y="1176.9688"/><text fill="#03045E" font-family="sans-serif" font-size="12" lengthAdjust="spacing" textLength="73" x="1596.5" y="1188.1074">value_range</text><rect fill="none" height="6" style="stroke:#C82930;stroke-width:1.0;" width="6" x="1581.5" y="1198.9375"/><text fill="#03045E" font-family="sans-serif" font-size="12" lengthAdjust="spacing" textLength="58" x="1596.5" y="1210.0762">weighting</text><rect fill="none" height="6" style="stroke:#C82930;stroke-width:1.0;" width="6" x="1581.5" y="1220.9063"/><text fill="#03045E" font-family="sans-serif" font-size="12" lengthAdjust="spacing" textLength="43" x="1596.5" y="1232.0449">priority</text><rect fill="none" height="6" style="stroke:#C82930;stroke-width:1.0;" width="6" x="1581.5" y="1242.875"/><text fill="#03045E" font-family="sans-serif" font-size="12" lengthAdjust="spacing" textLength="103" x="1596.5" y="1254.0137">monetary_impact</text><rect fill="none" height="6" style="stroke:#C82930;stroke-width:1.0;" width="6" x="1581.5" y="1264.8438"/><text fill="#03045E" font-family="sans-serif" font-size="12" lengthAdjust="spacing" textLength="107" x="1596.5" y="1275.9824">reputation_impact</text><rect fill="none" height="6" style="stroke:#C82930;stroke-width:1.0;" width="6" x="1581.5" y="1286.8125"/><text fill="#03045E" font-family="sans-serif" font-size="12" lengthAdjust="spacing" textLength="144" x="1596.5" y="1297.9512">attestation_or_evidence</text><line style="stroke:#0077B6;stroke-width:0.5;" x1="1574.5" x2="1749.5" y1="1308.7813" y2="1308.7813"/></g><!--MD5=[7d314000a6882a2080647ba4c83ed0ae]
class Plot--><g id="elem_Plot"><rect codeLine="299" fill="#9397B2" filter="url(#fkouufip2zsl0)" height="135.8438" id="Plot" rx="20" ry="20" style="stroke:#0077B6;stroke-width:0.5;" width="195" x="1844.5" y="1159"/><ellipse cx="1923.5" cy="1174.9844" fill="#ADD1B2" rx="10" ry="10" style="stroke:#181818;stroke-width:1.0;"/><path d="M1925.3594,1171.7344 C1924.7031,1171.4219 1924.2813,1171.3281 1923.6563,1171.3281 C1921.8125,1171.3281 1920.3906,1172.7813 1920.3906,1174.7031 L1920.3906,1175.5 C1920.3906,1177.3281 1921.8906,1178.6563 1923.9219,1178.6563 C1924.7813,1178.6563 1925.6094,1178.4375 1926.125,1178.0469 C1926.5469,1177.7656 1926.7656,1177.4531 1926.7656,1177.1719 C1926.7656,1176.8594 1926.4844,1176.5781 1926.1719,1176.5781 C1926.0156,1176.5781 1925.875,1176.6406 1925.7344,1176.7656 C1925.4063,1177.1094 1925.4063,1177.1094 1925.2813,1177.1719 C1924.9844,1177.3594 1924.5,1177.4531 1923.9531,1177.4531 C1922.5156,1177.4531 1921.5938,1176.6719 1921.5938,1175.4688 L1921.5938,1174.7031 C1921.5938,1173.4375 1922.4844,1172.5156 1923.7031,1172.5156 C1924.1094,1172.5156 1924.5469,1172.625 1924.875,1172.8125 C1925.2188,1173 1925.3438,1173.1563 1925.4063,1173.4375 C1925.4531,1173.7344 1925.4688,1173.8125 1925.5625,1173.9063 C1925.6563,1174.0156 1925.8281,1174.0781 1925.9844,1174.0781 C1926.1875,1174.0781 1926.3594,1173.9844 1926.4844,1173.8281 C1926.5625,1173.7188 1926.5938,1173.5938 1926.5938,1173.2813 L1926.5938,1172.2813 C1926.5938,1171.9844 1926.5781,1171.8906 1926.5,1171.7813 C1926.3906,1171.5938 1926.2031,1171.4844 1925.9844,1171.4844 C1925.7813,1171.4844 1925.6406,1171.5625 1925.4844,1171.7813 L1925.3594,1171.7344 Z " fill="#EEEEEE"/><text fill="#03045E" font-family="sans-serif" font-size="12" lengthAdjust="spacing" textLength="21" x="1946.5" y="1179.1387">Plot</text><line style="stroke:#0077B6;stroke-width:0.5;" x1="1845.5" x2="2038.5" y1="1190.9688" y2="1190.9688"/><rect fill="none" height="6" style="stroke:#C82930;stroke-width:1.0;" width="6" x="1852.5" y="1198.9688"/><text fill="#03045E" font-family="sans-serif" font-size="12" lengthAdjust="spacing" textLength="140" x="1867.5" y="1210.1074">dimensions: Dimension</text><rect fill="none" height="6" style="stroke:#C82930;stroke-width:1.0;" width="6" x="1852.5" y="1220.9375"/><text fill="#03045E" font-family="sans-serif" font-size="12" lengthAdjust="spacing" textLength="130" x="1867.5" y="1232.0762">usecases: UseCase[]</text><rect fill="none" height="6" style="stroke:#C82930;stroke-width:1.0;" width="6" x="1852.5" y="1242.9063"/><text fill="#03045E" font-family="sans-serif" font-size="12" lengthAdjust="spacing" textLength="138" x="1867.5" y="1254.0449">unit: OrganizationalUnit</text><rect fill="none" height="6" style="stroke:#C82930;stroke-width:1.0;" width="6" x="1852.5" y="1264.875"/><text fill="#03045E" font-family="sans-serif" font-size="12" lengthAdjust="spacing" textLength="162" x="1867.5" y="1276.0137">assessments: Assessment</text><line style="stroke:#0077B6;stroke-width:0.5;" x1="1845.5" x2="2038.5" y1="1286.8438" y2="1286.8438"/></g><!--MD5=[8ff17cdb83165c2c766dbd5ed84aa446]
class Criterion--><g id="elem_Criterion"><rect codeLine="305" fill="#9397B2" filter="url(#fkouufip2zsl0)" height="135.8438" id="Criterion" rx="20" ry="20" style="stroke:#0077B6;stroke-width:0.5;" width="240" x="1266" y="1159"/><ellipse cx="1352.5" cy="1174.9844" fill="#ADD1B2" rx="10" ry="10" style="stroke:#181818;stroke-width:1.0;"/><path d="M1354.3594,1171.7344 C1353.7031,1171.4219 1353.2813,1171.3281 1352.6563,1171.3281 C1350.8125,1171.3281 1349.3906,1172.7813 1349.3906,1174.7031 L1349.3906,1175.5 C1349.3906,1177.3281 1350.8906,1178.6563 1352.9219,1178.6563 C1353.7813,1178.6563 1354.6094,1178.4375 1355.125,1178.0469 C1355.5469,1177.7656 1355.7656,1177.4531 1355.7656,1177.1719 C1355.7656,1176.8594 1355.4844,1176.5781 1355.1719,1176.5781 C1355.0156,1176.5781 1354.875,1176.6406 1354.7344,1176.7656 C1354.4063,1177.1094 1354.4063,1177.1094 1354.2813,1177.1719 C1353.9844,1177.3594 1353.5,1177.4531 1352.9531,1177.4531 C1351.5156,1177.4531 1350.5938,1176.6719 1350.5938,1175.4688 L1350.5938,1174.7031 C1350.5938,1173.4375 1351.4844,1172.5156 1352.7031,1172.5156 C1353.1094,1172.5156 1353.5469,1172.625 1353.875,1172.8125 C1354.2188,1173 1354.3438,1173.1563 1354.4063,1173.4375 C1354.4531,1173.7344 1354.4688,1173.8125 1354.5625,1173.9063 C1354.6563,1174.0156 1354.8281,1174.0781 1354.9844,1174.0781 C1355.1875,1174.0781 1355.3594,1173.9844 1355.4844,1173.8281 C1355.5625,1173.7188 1355.5938,1173.5938 1355.5938,1173.2813 L1355.5938,1172.2813 C1355.5938,1171.9844 1355.5781,1171.8906 1355.5,1171.7813 C1355.3906,1171.5938 1355.2031,1171.4844 1354.9844,1171.4844 C1354.7813,1171.4844 1354.6406,1171.5625 1354.4844,1171.7813 L1354.3594,1171.7344 Z " fill="#EEEEEE"/><text fill="#03045E" font-family="sans-serif" font-size="12" lengthAdjust="spacing" textLength="51" x="1375.5" y="1179.1387">Criterion</text><line style="stroke:#0077B6;stroke-width:0.5;" x1="1267" x2="1505" y1="1190.9688" y2="1190.9688"/><ellipse cx="1277" cy="1201.9688" fill="none" rx="3" ry="3" style="stroke:#038048;stroke-width:1.0;"/><text fill="#03045E" font-family="sans-serif" font-size="12" lengthAdjust="spacing" textLength="207" x="1289" y="1210.1074">capability: MaturityModelCapability</text><ellipse cx="1277" cy="1223.9375" fill="none" rx="3" ry="3" style="stroke:#038048;stroke-width:1.0;"/><text fill="#03045E" font-family="sans-serif" font-size="12" lengthAdjust="spacing" textLength="123" x="1289" y="1232.0762">relevant_from: Level</text><ellipse cx="1277" cy="1245.9063" fill="none" rx="3" ry="3" style="stroke:#038048;stroke-width:1.0;"/><text fill="#03045E" font-family="sans-serif" font-size="12" lengthAdjust="spacing" textLength="133" x="1289" y="1254.0449">dimension: Dimension</text><ellipse cx="1277" cy="1267.875" fill="none" rx="3" ry="3" style="stroke:#038048;stroke-width:1.0;"/><text fill="#03045E" font-family="sans-serif" font-size="12" lengthAdjust="spacing" textLength="22" x="1289" y="1276.0137">abc</text><line style="stroke:#0077B6;stroke-width:0.5;" x1="1267" x2="1505" y1="1286.8438" y2="1286.8438"/></g><!--MD5=[8d1280e58717f51acd6181606489346b]
class Assessment--><g id="elem_Assessment"><rect codeLine="316" fill="#9397B2" filter="url(#fkouufip2zsl0)" height="149.8125" id="Assessment" rx="20" ry="20" style="stroke:#0077B6;stroke-width:0.5;" width="198" x="2612" y="812"/><ellipse cx="2666" cy="827.9844" fill="#ADD1B2" rx="10" ry="10" style="stroke:#181818;stroke-width:1.0;"/><path d="M2667.8594,824.7344 C2667.2031,824.4219 2666.7813,824.3281 2666.1563,824.3281 C2664.3125,824.3281 2662.8906,825.7813 2662.8906,827.7031 L2662.8906,828.5 C2662.8906,830.3281 2664.3906,831.6563 2666.4219,831.6563 C2667.2813,831.6563 2668.1094,831.4375 2668.625,831.0469 C2669.0469,830.7656 2669.2656,830.4531 2669.2656,830.1719 C2669.2656,829.8594 2668.9844,829.5781 2668.6719,829.5781 C2668.5156,829.5781 2668.375,829.6406 2668.2344,829.7656 C2667.9063,830.1094 2667.9063,830.1094 2667.7813,830.1719 C2667.4844,830.3594 2667,830.4531 2666.4531,830.4531 C2665.0156,830.4531 2664.0938,829.6719 2664.0938,828.4688 L2664.0938,827.7031 C2664.0938,826.4375 2664.9844,825.5156 2666.2031,825.5156 C2666.6094,825.5156 2667.0469,825.625 2667.375,825.8125 C2667.7188,826 2667.8438,826.1563 2667.9063,826.4375 C2667.9531,826.7344 2667.9688,826.8125 2668.0625,826.9063 C2668.1563,827.0156 2668.3281,827.0781 2668.4844,827.0781 C2668.6875,827.0781 2668.8594,826.9844 2668.9844,826.8281 C2669.0625,826.7188 2669.0938,826.5938 2669.0938,826.2813 L2669.0938,825.2813 C2669.0938,824.9844 2669.0781,824.8906 2669,824.7813 C2668.8906,824.5938 2668.7031,824.4844 2668.4844,824.4844 C2668.2813,824.4844 2668.1406,824.5625 2667.9844,824.7813 L2667.8594,824.7344 Z " fill="#EEEEEE"/><text fill="#03045E" font-family="sans-serif" font-size="12" lengthAdjust="spacing" textLength="74" x="2689" y="832.1387">Assessment</text><line style="stroke:#0077B6;stroke-width:0.5;" x1="2613" x2="2809" y1="843.9688" y2="843.9688"/><text fill="#03045E" font-family="sans-serif" font-size="12" lengthAdjust="spacing" textLength="96" x="2622" y="863.1074">Has a treatment</text><text fill="#03045E" font-family="sans-serif" font-size="12" lengthAdjust="spacing" textLength="86" x="2622" y="877.0762">been applied?</text><line style="stroke:#0077B6;stroke-width:1.0;stroke-dasharray:1.0,2.0;" x1="2613" x2="2809" y1="887.9063" y2="887.9063"/><rect fill="none" height="6" style="stroke:#C82930;stroke-width:1.0;" width="6" x="2620" y="895.9063"/><text fill="#03045E" font-family="sans-serif" font-size="12" lengthAdjust="spacing" textLength="52" x="2635" y="907.0449">plot: Plot</text><rect fill="none" height="6" style="stroke:#C82930;stroke-width:1.0;" width="6" x="2620" y="917.875"/><text fill="#03045E" font-family="sans-serif" font-size="12" lengthAdjust="spacing" textLength="159" x="2635" y="929.0137">scope: AssessmentScope</text><rect fill="none" height="6" style="stroke:#C82930;stroke-width:1.0;" width="6" x="2620" y="939.8438"/><text fill="#03045E" font-family="sans-serif" font-size="12" lengthAdjust="spacing" textLength="165" x="2635" y="950.9824">assessor: PersonOrSystem</text></g><!--MD5=[ff2faa1b3f0d1e859ca60fd3131da6cf]
class AssessmentScope--><g id="elem_AssessmentScope"><rect codeLine="323" fill="#9397B2" filter="url(#fkouufip2zsl0)" height="157.8125" id="AssessmentScope" rx="20" ry="20" style="stroke:#0077B6;stroke-width:0.5;" width="205" x="2371.5" y="808"/><ellipse cx="2409.8" cy="823.9844" fill="#ADD1B2" rx="10" ry="10" style="stroke:#181818;stroke-width:1.0;"/><path d="M2411.6594,820.7344 C2411.0031,820.4219 2410.5813,820.3281 2409.9563,820.3281 C2408.1125,820.3281 2406.6906,821.7813 2406.6906,823.7031 L2406.6906,824.5 C2406.6906,826.3281 2408.1906,827.6563 2410.2219,827.6563 C2411.0813,827.6563 2411.9094,827.4375 2412.425,827.0469 C2412.8469,826.7656 2413.0656,826.4531 2413.0656,826.1719 C2413.0656,825.8594 2412.7844,825.5781 2412.4719,825.5781 C2412.3156,825.5781 2412.175,825.6406 2412.0344,825.7656 C2411.7063,826.1094 2411.7063,826.1094 2411.5813,826.1719 C2411.2844,826.3594 2410.8,826.4531 2410.2531,826.4531 C2408.8156,826.4531 2407.8938,825.6719 2407.8938,824.4688 L2407.8938,823.7031 C2407.8938,822.4375 2408.7844,821.5156 2410.0031,821.5156 C2410.4094,821.5156 2410.8469,821.625 2411.175,821.8125 C2411.5188,822 2411.6438,822.1563 2411.7063,822.4375 C2411.7531,822.7344 2411.7688,822.8125 2411.8625,822.9063 C2411.9563,823.0156 2412.1281,823.0781 2412.2844,823.0781 C2412.4875,823.0781 2412.6594,822.9844 2412.7844,822.8281 C2412.8625,822.7188 2412.8938,822.5938 2412.8938,822.2813 L2412.8938,821.2813 C2412.8938,820.9844 2412.8781,820.8906 2412.8,820.7813 C2412.6906,820.5938 2412.5031,820.4844 2412.2844,820.4844 C2412.0813,820.4844 2411.9406,820.5625 2411.7844,820.7813 L2411.6594,820.7344 Z " fill="#EEEEEE"/><text fill="#03045E" font-family="sans-serif" font-size="12" lengthAdjust="spacing" textLength="113" x="2432.2" y="828.1387">AssessmentScope</text><line style="stroke:#0077B6;stroke-width:0.5;" x1="2372.5" x2="2575.5" y1="839.9688" y2="839.9688"/><rect fill="none" height="6" style="stroke:#C82930;stroke-width:1.0;" width="6" x="2379.5" y="847.9688"/><text fill="#03045E" font-family="sans-serif" font-size="12" lengthAdjust="spacing" textLength="40" x="2394.5" y="859.1074">period</text><rect fill="none" height="6" style="stroke:#C82930;stroke-width:1.0;" width="6" x="2379.5" y="869.9375"/><text fill="#03045E" font-family="sans-serif" font-size="12" lengthAdjust="spacing" textLength="86" x="2394.5" y="881.0762">goal/objective</text><rect fill="none" height="6" style="stroke:#C82930;stroke-width:1.0;" width="6" x="2379.5" y="891.9063"/><text fill="#03045E" font-family="sans-serif" font-size="12" lengthAdjust="spacing" textLength="50" x="2394.5" y="903.0449">sponsor</text><rect fill="none" height="6" style="stroke:#C82930;stroke-width:1.0;" width="6" x="2379.5" y="913.875"/><text fill="#03045E" font-family="sans-serif" font-size="12" lengthAdjust="spacing" textLength="172" x="2394.5" y="925.0137">assessments: Assessment[]</text><rect fill="none" height="6" style="stroke:#C82930;stroke-width:1.0;" width="6" x="2379.5" y="935.8438"/><text fill="#03045E" font-family="sans-serif" font-size="12" lengthAdjust="spacing" textLength="144" x="2394.5" y="946.9824">assessable_plots: Plot[]</text><line style="stroke:#0077B6;stroke-width:0.5;" x1="2372.5" x2="2575.5" y1="957.8125" y2="957.8125"/></g><!--MD5=[459c051a87f7b0a52bb89049e6979f2b]
class KGI--><g id="elem_KGI"><rect codeLine="330" fill="#9397B2" filter="url(#fkouufip2zsl0)" height="97.875" id="KGI" rx="20" ry="20" style="stroke:#0077B6;stroke-width:0.5;" width="116" x="2900" y="1178"/><ellipse cx="2940.1" cy="1193.9844" fill="#ADD1B2" rx="10" ry="10" style="stroke:#181818;stroke-width:1.0;"/><path d="M2941.9594,1190.7344 C2941.3031,1190.4219 2940.8813,1190.3281 2940.2563,1190.3281 C2938.4125,1190.3281 2936.9906,1191.7813 2936.9906,1193.7031 L2936.9906,1194.5 C2936.9906,1196.3281 2938.4906,1197.6563 2940.5219,1197.6563 C2941.3813,1197.6563 2942.2094,1197.4375 2942.725,1197.0469 C2943.1469,1196.7656 2943.3656,1196.4531 2943.3656,1196.1719 C2943.3656,1195.8594 2943.0844,1195.5781 2942.7719,1195.5781 C2942.6156,1195.5781 2942.475,1195.6406 2942.3344,1195.7656 C2942.0063,1196.1094 2942.0063,1196.1094 2941.8813,1196.1719 C2941.5844,1196.3594 2941.1,1196.4531 2940.5531,1196.4531 C2939.1156,1196.4531 2938.1938,1195.6719 2938.1938,1194.4688 L2938.1938,1193.7031 C2938.1938,1192.4375 2939.0844,1191.5156 2940.3031,1191.5156 C2940.7094,1191.5156 2941.1469,1191.625 2941.475,1191.8125 C2941.8188,1192 2941.9438,1192.1563 2942.0063,1192.4375 C2942.0531,1192.7344 2942.0688,1192.8125 2942.1625,1192.9063 C2942.2563,1193.0156 2942.4281,1193.0781 2942.5844,1193.0781 C2942.7875,1193.0781 2942.9594,1192.9844 2943.0844,1192.8281 C2943.1625,1192.7188 2943.1938,1192.5938 2943.1938,1192.2813 L2943.1938,1191.2813 C2943.1938,1190.9844 2943.1781,1190.8906 2943.1,1190.7813 C2942.9906,1190.5938 2942.8031,1190.4844 2942.5844,1190.4844 C2942.3813,1190.4844 2942.2406,1190.5625 2942.0844,1190.7813 L2941.9594,1190.7344 Z " fill="#EEEEEE"/><text fill="#03045E" font-family="sans-serif" font-size="12" lengthAdjust="spacing" textLength="20" x="2962.9" y="1198.1387">KGI</text><line style="stroke:#0077B6;stroke-width:0.5;" x1="2901" x2="3015" y1="1209.9688" y2="1209.9688"/><text fill="#03045E" font-family="sans-serif" font-size="12" lengthAdjust="spacing" textLength="96" x="2910" y="1229.1074">Has a treatment</text><text fill="#03045E" font-family="sans-serif" font-size="12" lengthAdjust="spacing" textLength="80" x="2910" y="1243.0762">been applied</text><text fill="#03045E" font-family="sans-serif" font-size="12" lengthAdjust="spacing" textLength="69" x="2910" y="1257.0449">to the EKG?</text><line style="stroke:#0077B6;stroke-width:1.0;stroke-dasharray:1.0,2.0;" x1="2901" x2="3015" y1="1267.875" y2="1267.875"/></g><!--MD5=[e7469840758b3c985e00ad03463c2ff2]
class Treatment--><g id="elem_Treatment"><rect codeLine="334" fill="#9397B2" filter="url(#fkouufip2zsl0)" height="47.9688" id="Treatment" rx="20" ry="20" style="stroke:#0077B6;stroke-width:0.5;" width="99" x="2639.5" y="1203"/><ellipse cx="2653.5" cy="1218.9844" fill="#ADD1B2" rx="10" ry="10" style="stroke:#181818;stroke-width:1.0;"/><path d="M2655.3594,1215.7344 C2654.7031,1215.4219 2654.2813,1215.3281 2653.6563,1215.3281 C2651.8125,1215.3281 2650.3906,1216.7813 2650.3906,1218.7031 L2650.3906,1219.5 C2650.3906,1221.3281 2651.8906,1222.6563 2653.9219,1222.6563 C2654.7813,1222.6563 2655.6094,1222.4375 2656.125,1222.0469 C2656.5469,1221.7656 2656.7656,1221.4531 2656.7656,1221.1719 C2656.7656,1220.8594 2656.4844,1220.5781 2656.1719,1220.5781 C2656.0156,1220.5781 2655.875,1220.6406 2655.7344,1220.7656 C2655.4063,1221.1094 2655.4063,1221.1094 2655.2813,1221.1719 C2654.9844,1221.3594 2654.5,1221.4531 2653.9531,1221.4531 C2652.5156,1221.4531 2651.5938,1220.6719 2651.5938,1219.4688 L2651.5938,1218.7031 C2651.5938,1217.4375 2652.4844,1216.5156 2653.7031,1216.5156 C2654.1094,1216.5156 2654.5469,1216.625 2654.875,1216.8125 C2655.2188,1217 2655.3438,1217.1563 2655.4063,1217.4375 C2655.4531,1217.7344 2655.4688,1217.8125 2655.5625,1217.9063 C2655.6563,1218.0156 2655.8281,1218.0781 2655.9844,1218.0781 C2656.1875,1218.0781 2656.3594,1217.9844 2656.4844,1217.8281 C2656.5625,1217.7188 2656.5938,1217.5938 2656.5938,1217.2813 L2656.5938,1216.2813 C2656.5938,1215.9844 2656.5781,1215.8906 2656.5,1215.7813 C2656.3906,1215.5938 2656.2031,1215.4844 2655.9844,1215.4844 C2655.7813,1215.4844 2655.6406,1215.5625 2655.4844,1215.7813 L2655.3594,1215.7344 Z " fill="#EEEEEE"/><text fill="#03045E" font-family="sans-serif" font-size="12" lengthAdjust="spacing" textLength="61" x="2670.5" y="1223.1387">Treatment</text><line style="stroke:#0077B6;stroke-width:0.5;" x1="2640.5" x2="2737.5" y1="1234.9688" y2="1234.9688"/><line style="stroke:#0077B6;stroke-width:0.5;" x1="2640.5" x2="2737.5" y1="1242.9688" y2="1242.9688"/></g><!--MD5=[43c3ed761bbf459f320158f12e4e12a5]
class Treatise--><g id="elem_Treatise"><rect codeLine="336" fill="#9397B2" filter="url(#fkouufip2zsl0)" height="47.9688" id="Treatise" rx="20" ry="20" style="stroke:#0077B6;stroke-width:0.5;" width="87" x="2371.5" y="1203"/><ellipse cx="2385.5" cy="1218.9844" fill="#ADD1B2" rx="10" ry="10" style="stroke:#181818;stroke-width:1.0;"/><path d="M2387.3594,1215.7344 C2386.7031,1215.4219 2386.2813,1215.3281 2385.6563,1215.3281 C2383.8125,1215.3281 2382.3906,1216.7813 2382.3906,1218.7031 L2382.3906,1219.5 C2382.3906,1221.3281 2383.8906,1222.6563 2385.9219,1222.6563 C2386.7813,1222.6563 2387.6094,1222.4375 2388.125,1222.0469 C2388.5469,1221.7656 2388.7656,1221.4531 2388.7656,1221.1719 C2388.7656,1220.8594 2388.4844,1220.5781 2388.1719,1220.5781 C2388.0156,1220.5781 2387.875,1220.6406 2387.7344,1220.7656 C2387.4063,1221.1094 2387.4063,1221.1094 2387.2813,1221.1719 C2386.9844,1221.3594 2386.5,1221.4531 2385.9531,1221.4531 C2384.5156,1221.4531 2383.5938,1220.6719 2383.5938,1219.4688 L2383.5938,1218.7031 C2383.5938,1217.4375 2384.4844,1216.5156 2385.7031,1216.5156 C2386.1094,1216.5156 2386.5469,1216.625 2386.875,1216.8125 C2387.2188,1217 2387.3438,1217.1563 2387.4063,1217.4375 C2387.4531,1217.7344 2387.4688,1217.8125 2387.5625,1217.9063 C2387.6563,1218.0156 2387.8281,1218.0781 2387.9844,1218.0781 C2388.1875,1218.0781 2388.3594,1217.9844 2388.4844,1217.8281 C2388.5625,1217.7188 2388.5938,1217.5938 2388.5938,1217.2813 L2388.5938,1216.2813 C2388.5938,1215.9844 2388.5781,1215.8906 2388.5,1215.7813 C2388.3906,1215.5938 2388.2031,1215.4844 2387.9844,1215.4844 C2387.7813,1215.4844 2387.6406,1215.5625 2387.4844,1215.7813 L2387.3594,1215.7344 Z " fill="#EEEEEE"/><text fill="#03045E" font-family="sans-serif" font-size="12" lengthAdjust="spacing" textLength="49" x="2402.5" y="1223.1387">Treatise</text><line style="stroke:#0077B6;stroke-width:0.5;" x1="2372.5" x2="2457.5" y1="1234.9688" y2="1234.9688"/><line style="stroke:#0077B6;stroke-width:0.5;" x1="2372.5" x2="2457.5" y1="1242.9688" y2="1242.9688"/></g><!--MD5=[f81c6df5d21be6f9aa9025509740567b]
reverse link Model to Capability--><g id="link_Model_Capability"><path codeLine="204" d="M2198,378.57 C2198,410.98 2198,451.7 2198,486.8 " fill="none" id="Model-backto-Capability" style="stroke:#FF9900;stroke-width:1.0;"/><polygon fill="#FF9900" points="2198,365.22,2194,371.22,2198,377.22,2202,371.22,2198,365.22" style="stroke:#FF9900;stroke-width:1.0;"/><text fill="#EEEEEE" font-family="sans-serif" font-size="12" font-weight="bold" lengthAdjust="spacing" textLength="8" x="2184.925" y="388.0518">1</text><text fill="#EEEEEE" font-family="sans-serif" font-size="12" font-weight="bold" lengthAdjust="spacing" textLength="7" x="2186.2617" y="472.1657">*</text></g><!--MD5=[3f2ecd1d40f9abfd4c809f5d52e5f660]
reverse link Capability to Capability--><g id="link_Capability_Capability"><path codeLine="205" d="M2315.06,544.37 C2328.37,548.42 2337,555.63 2337,566 C2337,579.41 2322.58,587.54 2302.26,590.37 " fill="none" id="Capability-backto-Capability" style="stroke:#FF9900;stroke-width:1.0;"/><polygon fill="#FF9900" points="2302.26,541.63,2307.2871,546.7999,2313.9929,544.148,2308.9657,538.978,2302.26,541.63" style="stroke:#FF9900;stroke-width:1.0;"/><text fill="#EEEEEE" font-family="sans-serif" font-size="12" font-weight="bold" lengthAdjust="spacing" textLength="81" x="2354.5" y="548.6387">consists of</text><text fill="#EEEEEE" font-family="sans-serif" font-size="12" font-weight="bold" lengthAdjust="spacing" textLength="78" x="2356" y="570.6074">lower level</text><polygon fill="#EEEEEE" points="2348.1644,592.2486,2348.3073,584.6415,2343.8087,586.0104,2348.1644,592.2486" style="stroke:#EEEEEE;stroke-width:1.0;"/><text fill="#EEEEEE" font-family="sans-serif" font-size="12" font-weight="bold" lengthAdjust="spacing" textLength="84" x="2359" y="592.5762">capabilities</text></g><!--MD5=[c40588bcb34827037edef4ec7477c811]
link TechnicalIdentifier to TechnicalIdentifier$$$RIGHT--></g></svg>