<?xml version="1.0" encoding="UTF-8" standalone="no"?><svg xmlns="http://www.w3.org/2000/svg" xmlns:xlink="http://www.w3.org/1999/xlink" contentStyleType="text/css" height="612px" preserveAspectRatio="none" style="width:606px;height:612px;background:#2E303E;" version="1.1" viewBox="0 0 606 612" width="606px" zoomAndPan="magnify"><defs><filter height="300%" id="f1c4cb8tf72xfw" width="300%" x="-1" y="-1"><feGaussianBlur result="blurOut" stdDeviation="2.0"/><feColorMatrix in="blurOut" result="blurOut2" type="matrix" values="0 0 0 0 0 0 0 0 0 0 0 0 0 0 0 0 0 0 .4 0"/><feOffset dx="4.0" dy="4.0" in="blurOut2" result="blurOut3"/><feBlend in="SourceGraphic" in2="blurOut3" mode="normal"/></filter></defs><g><!--MD5=[9d451b2f92d848a8e2d1a4dab2b1c6bf]
class Concept--><a href="http://plantuml.com" target="_top" title="Optional tooltip" xlink:actuate="onRequest" xlink:href="http://plantuml.com" xlink:show="new" xlink:title="Optional tooltip" xlink:type="simple"><g id="elem_Concept"><rect codeLine="195" fill="#9397B2" filter="url(#f1c4cb8tf72xfw)" height="69.9375" id="Concept" rx="20" ry="20" style="stroke:#0077B6;stroke-width:0.5;" width="152" x="71.5" y="291"/><ellipse cx="114.5" cy="306.9844" fill="#ADD1B2" rx="10" ry="10" style="stroke:#181818;stroke-width:1.0;"/><path d="M116.3594,303.7344 C115.7031,303.4219 115.2813,303.3281 114.6563,303.3281 C112.8125,303.3281 111.3906,304.7813 111.3906,306.7031 L111.3906,307.5 C111.3906,309.3281 112.8906,310.6563 114.9219,310.6563 C115.7813,310.6563 116.6094,310.4375 117.125,310.0469 C117.5469,309.7656 117.7656,309.4531 117.7656,309.1719 C117.7656,308.8594 117.4844,308.5781 117.1719,308.5781 C117.0156,308.5781 116.875,308.6406 116.7344,308.7656 C116.4063,309.1094 116.4063,309.1094 116.2813,309.1719 C115.9844,309.3594 115.5,309.4531 114.9531,309.4531 C113.5156,309.4531 112.5938,308.6719 112.5938,307.4688 L112.5938,306.7031 C112.5938,305.4375 113.4844,304.5156 114.7031,304.5156 C115.1094,304.5156 115.5469,304.625 115.875,304.8125 C116.2188,305 116.3438,305.1563 116.4063,305.4375 C116.4531,305.7344 116.4688,305.8125 116.5625,305.9063 C116.6563,306.0156 116.8281,306.0781 116.9844,306.0781 C117.1875,306.0781 117.3594,305.9844 117.4844,305.8281 C117.5625,305.7188 117.5938,305.5938 117.5938,305.2813 L117.5938,304.2813 C117.5938,303.9844 117.5781,303.8906 117.5,303.7813 C117.3906,303.5938 117.2031,303.4844 116.9844,303.4844 C116.7813,303.4844 116.6406,303.5625 116.4844,303.7813 L116.3594,303.7344 Z " fill="#EEEEEE"/><text fill="#03045E" font-family="sans-serif" font-size="12" lengthAdjust="spacing" textLength="50" x="137.5" y="311.1387">Concept</text><line style="stroke:#0077B6;stroke-width:0.5;" x1="72.5" x2="222.5" y1="322.9688" y2="322.9688"/><rect fill="none" height="6" style="stroke:#C82930;stroke-width:1.0;" width="6" x="79.5" y="330.9688"/><text fill="#03045E" font-family="sans-serif" font-size="12" lengthAdjust="spacing" textLength="119" x="94.5" y="342.1074">type : ConceptType</text><line style="stroke:#0077B6;stroke-width:0.5;" x1="72.5" x2="222.5" y1="352.9375" y2="352.9375"/></g></a><!--MD5=[bfd2418b046a7d4e4bea09e7ac87d703]
class UseCase--><g id="elem_UseCase"><rect codeLine="196" fill="#9397B2" filter="url(#f1c4cb8tf72xfw)" height="91.9063" id="UseCase" rx="20" ry="20" style="stroke:#0077B6;stroke-width:0.5;" width="174" x="308.5" y="7"/><ellipse cx="360.5" cy="22.9844" fill="#ADD1B2" rx="10" ry="10" style="stroke:#181818;stroke-width:1.0;"/><path d="M362.3594,19.7344 C361.7031,19.4219 361.2813,19.3281 360.6563,19.3281 C358.8125,19.3281 357.3906,20.7813 357.3906,22.7031 L357.3906,23.5 C357.3906,25.3281 358.8906,26.6563 360.9219,26.6563 C361.7813,26.6563 362.6094,26.4375 363.125,26.0469 C363.5469,25.7656 363.7656,25.4531 363.7656,25.1719 C363.7656,24.8594 363.4844,24.5781 363.1719,24.5781 C363.0156,24.5781 362.875,24.6406 362.7344,24.7656 C362.4063,25.1094 362.4063,25.1094 362.2813,25.1719 C361.9844,25.3594 361.5,25.4531 360.9531,25.4531 C359.5156,25.4531 358.5938,24.6719 358.5938,23.4688 L358.5938,22.7031 C358.5938,21.4375 359.4844,20.5156 360.7031,20.5156 C361.1094,20.5156 361.5469,20.625 361.875,20.8125 C362.2188,21 362.3438,21.1563 362.4063,21.4375 C362.4531,21.7344 362.4688,21.8125 362.5625,21.9063 C362.6563,22.0156 362.8281,22.0781 362.9844,22.0781 C363.1875,22.0781 363.3594,21.9844 363.4844,21.8281 C363.5625,21.7188 363.5938,21.5938 363.5938,21.2813 L363.5938,20.2813 C363.5938,19.9844 363.5781,19.8906 363.5,19.7813 C363.3906,19.5938 363.2031,19.4844 362.9844,19.4844 C362.7813,19.4844 362.6406,19.5625 362.4844,19.7813 L362.3594,19.7344 Z " fill="#EEEEEE"/><text fill="#03045E" font-family="sans-serif" font-size="12" lengthAdjust="spacing" textLength="54" x="383.5" y="27.1387">UseCase</text><line style="stroke:#0077B6;stroke-width:0.5;" x1="309.5" x2="481.5" y1="38.9688" y2="38.9688"/><rect fill="none" height="6" style="stroke:#C82930;stroke-width:1.0;" width="6" x="316.5" y="46.9688"/><text fill="#03045E" font-family="sans-serif" font-size="12" lengthAdjust="spacing" textLength="141" x="331.5" y="58.1074">vocabulary: Vocabulary</text><rect fill="none" height="6" style="stroke:#C82930;stroke-width:1.0;" width="6" x="316.5" y="68.9375"/><text fill="#03045E" font-family="sans-serif" font-size="12" lengthAdjust="spacing" textLength="92" x="331.5" y="80.0762">stories: Story[]</text><line style="stroke:#0077B6;stroke-width:0.5;" x1="309.5" x2="481.5" y1="90.9063" y2="90.9063"/></g><!--MD5=[ab582a0c263dba417ad352e606b068fa]
class Vocabulary--><g id="elem_Vocabulary"><rect fill="#9397B2" filter="url(#f1c4cb8tf72xfw)" height="47.9688" id="Vocabulary" rx="20" ry="20" style="stroke:#0077B6;stroke-width:0.5;" width="105" x="95" y="182"/><ellipse cx="109" cy="197.9844" fill="#ADD1B2" rx="10" ry="10" style="stroke:#181818;stroke-width:1.0;"/><path d="M110.8594,194.7344 C110.2031,194.4219 109.7813,194.3281 109.1563,194.3281 C107.3125,194.3281 105.8906,195.7813 105.8906,197.7031 L105.8906,198.5 C105.8906,200.3281 107.3906,201.6563 109.4219,201.6563 C110.2813,201.6563 111.1094,201.4375 111.625,201.0469 C112.0469,200.7656 112.2656,200.4531 112.2656,200.1719 C112.2656,199.8594 111.9844,199.5781 111.6719,199.5781 C111.5156,199.5781 111.375,199.6406 111.2344,199.7656 C110.9063,200.1094 110.9063,200.1094 110.7813,200.1719 C110.4844,200.3594 110,200.4531 109.4531,200.4531 C108.0156,200.4531 107.0938,199.6719 107.0938,198.4688 L107.0938,197.7031 C107.0938,196.4375 107.9844,195.5156 109.2031,195.5156 C109.6094,195.5156 110.0469,195.625 110.375,195.8125 C110.7188,196 110.8438,196.1563 110.9063,196.4375 C110.9531,196.7344 110.9688,196.8125 111.0625,196.9063 C111.1563,197.0156 111.3281,197.0781 111.4844,197.0781 C111.6875,197.0781 111.8594,196.9844 111.9844,196.8281 C112.0625,196.7188 112.0938,196.5938 112.0938,196.2813 L112.0938,195.2813 C112.0938,194.9844 112.0781,194.8906 112,194.7813 C111.8906,194.5938 111.7031,194.4844 111.4844,194.4844 C111.2813,194.4844 111.1406,194.5625 110.9844,194.7813 L110.8594,194.7344 Z " fill="#EEEEEE"/><text fill="#03045E" font-family="sans-serif" font-size="12" lengthAdjust="spacing" textLength="67" x="126" y="202.1387">Vocabulary</text><line style="stroke:#0077B6;stroke-width:0.5;" x1="96" x2="199" y1="213.9688" y2="213.9688"/><line style="stroke:#0077B6;stroke-width:0.5;" x1="96" x2="199" y1="221.9688" y2="221.9688"/></g><!--MD5=[9d35236b92952560f647498cf8a29acb]
class Term--><g id="elem_Term"><rect fill="#9397B2" filter="url(#f1c4cb8tf72xfw)" height="47.9688" id="Term" rx="20" ry="20" style="stroke:#0077B6;stroke-width:0.5;" width="69" x="7" y="444"/><ellipse cx="21" cy="459.9844" fill="#ADD1B2" rx="10" ry="10" style="stroke:#181818;stroke-width:1.0;"/><path d="M22.8594,456.7344 C22.2031,456.4219 21.7813,456.3281 21.1563,456.3281 C19.3125,456.3281 17.8906,457.7813 17.8906,459.7031 L17.8906,460.5 C17.8906,462.3281 19.3906,463.6563 21.4219,463.6563 C22.2813,463.6563 23.1094,463.4375 23.625,463.0469 C24.0469,462.7656 24.2656,462.4531 24.2656,462.1719 C24.2656,461.8594 23.9844,461.5781 23.6719,461.5781 C23.5156,461.5781 23.375,461.6406 23.2344,461.7656 C22.9063,462.1094 22.9063,462.1094 22.7813,462.1719 C22.4844,462.3594 22,462.4531 21.4531,462.4531 C20.0156,462.4531 19.0938,461.6719 19.0938,460.4688 L19.0938,459.7031 C19.0938,458.4375 19.9844,457.5156 21.2031,457.5156 C21.6094,457.5156 22.0469,457.625 22.375,457.8125 C22.7188,458 22.8438,458.1563 22.9063,458.4375 C22.9531,458.7344 22.9688,458.8125 23.0625,458.9063 C23.1563,459.0156 23.3281,459.0781 23.4844,459.0781 C23.6875,459.0781 23.8594,458.9844 23.9844,458.8281 C24.0625,458.7188 24.0938,458.5938 24.0938,458.2813 L24.0938,457.2813 C24.0938,456.9844 24.0781,456.8906 24,456.7813 C23.8906,456.5938 23.7031,456.4844 23.4844,456.4844 C23.2813,456.4844 23.1406,456.5625 22.9844,456.7813 L22.8594,456.7344 Z " fill="#EEEEEE"/><text fill="#03045E" font-family="sans-serif" font-size="12" lengthAdjust="spacing" textLength="31" x="38" y="464.1387">Term</text><line style="stroke:#0077B6;stroke-width:0.5;" x1="8" x2="75" y1="475.9688" y2="475.9688"/><line style="stroke:#0077B6;stroke-width:0.5;" x1="8" x2="75" y1="483.9688" y2="483.9688"/></g><!--MD5=[b8198f8fbe707aa7c65b1598e49c1d3e]
class Story--><g id="elem_Story"><rect fill="#9397B2" filter="url(#f1c4cb8tf72xfw)" height="47.9688" id="Story" rx="20" ry="20" style="stroke:#0077B6;stroke-width:0.5;" width="70" x="335.5" y="553"/><ellipse cx="349.5" cy="568.9844" fill="#ADD1B2" rx="10" ry="10" style="stroke:#181818;stroke-width:1.0;"/><path d="M351.3594,565.7344 C350.7031,565.4219 350.2813,565.3281 349.6563,565.3281 C347.8125,565.3281 346.3906,566.7813 346.3906,568.7031 L346.3906,569.5 C346.3906,571.3281 347.8906,572.6563 349.9219,572.6563 C350.7813,572.6563 351.6094,572.4375 352.125,572.0469 C352.5469,571.7656 352.7656,571.4531 352.7656,571.1719 C352.7656,570.8594 352.4844,570.5781 352.1719,570.5781 C352.0156,570.5781 351.875,570.6406 351.7344,570.7656 C351.4063,571.1094 351.4063,571.1094 351.2813,571.1719 C350.9844,571.3594 350.5,571.4531 349.9531,571.4531 C348.5156,571.4531 347.5938,570.6719 347.5938,569.4688 L347.5938,568.7031 C347.5938,567.4375 348.4844,566.5156 349.7031,566.5156 C350.1094,566.5156 350.5469,566.625 350.875,566.8125 C351.2188,567 351.3438,567.1563 351.4063,567.4375 C351.4531,567.7344 351.4688,567.8125 351.5625,567.9063 C351.6563,568.0156 351.8281,568.0781 351.9844,568.0781 C352.1875,568.0781 352.3594,567.9844 352.4844,567.8281 C352.5625,567.7188 352.5938,567.5938 352.5938,567.2813 L352.5938,566.2813 C352.5938,565.9844 352.5781,565.8906 352.5,565.7813 C352.3906,565.5938 352.2031,565.4844 351.9844,565.4844 C351.7813,565.4844 351.6406,565.5625 351.4844,565.7813 L351.3594,565.7344 Z " fill="#EEEEEE"/><text fill="#03045E" font-family="sans-serif" font-size="12" lengthAdjust="spacing" textLength="32" x="366.5" y="573.1387">Story</text><line style="stroke:#0077B6;stroke-width:0.5;" x1="336.5" x2="404.5" y1="584.9688" y2="584.9688"/><line style="stroke:#0077B6;stroke-width:0.5;" x1="336.5" x2="404.5" y1="592.9688" y2="592.9688"/></g><!--MD5=[a30afb71db8613e535daba5edcf91fcd]
class OntologyAxiom--><g id="elem_OntologyAxiom"><rect fill="#9397B2" filter="url(#f1c4cb8tf72xfw)" height="47.9688" id="OntologyAxiom" rx="20" ry="20" style="stroke:#0077B6;stroke-width:0.5;" width="130" x="355.5" y="302"/><ellipse cx="369.5" cy="317.9844" fill="#ADD1B2" rx="10" ry="10" style="stroke:#181818;stroke-width:1.0;"/><path d="M371.3594,314.7344 C370.7031,314.4219 370.2813,314.3281 369.6563,314.3281 C367.8125,314.3281 366.3906,315.7813 366.3906,317.7031 L366.3906,318.5 C366.3906,320.3281 367.8906,321.6563 369.9219,321.6563 C370.7813,321.6563 371.6094,321.4375 372.125,321.0469 C372.5469,320.7656 372.7656,320.4531 372.7656,320.1719 C372.7656,319.8594 372.4844,319.5781 372.1719,319.5781 C372.0156,319.5781 371.875,319.6406 371.7344,319.7656 C371.4063,320.1094 371.4063,320.1094 371.2813,320.1719 C370.9844,320.3594 370.5,320.4531 369.9531,320.4531 C368.5156,320.4531 367.5938,319.6719 367.5938,318.4688 L367.5938,317.7031 C367.5938,316.4375 368.4844,315.5156 369.7031,315.5156 C370.1094,315.5156 370.5469,315.625 370.875,315.8125 C371.2188,316 371.3438,316.1563 371.4063,316.4375 C371.4531,316.7344 371.4688,316.8125 371.5625,316.9063 C371.6563,317.0156 371.8281,317.0781 371.9844,317.0781 C372.1875,317.0781 372.3594,316.9844 372.4844,316.8281 C372.5625,316.7188 372.5938,316.5938 372.5938,316.2813 L372.5938,315.2813 C372.5938,314.9844 372.5781,314.8906 372.5,314.7813 C372.3906,314.5938 372.2031,314.4844 371.9844,314.4844 C371.7813,314.4844 371.6406,314.5625 371.4844,314.7813 L371.3594,314.7344 Z " fill="#EEEEEE"/><text fill="#03045E" font-family="sans-serif" font-size="12" lengthAdjust="spacing" textLength="92" x="386.5" y="322.1387">OntologyAxiom</text><line style="stroke:#0077B6;stroke-width:0.5;" x1="356.5" x2="484.5" y1="333.9688" y2="333.9688"/><line style="stroke:#0077B6;stroke-width:0.5;" x1="356.5" x2="484.5" y1="341.9688" y2="341.9688"/></g><!--MD5=[8f63dadf5c643e74a34e53c8f0a15d23]
class Persona--><g id="elem_Persona"><rect fill="#9397B2" filter="url(#f1c4cb8tf72xfw)" height="47.9688" id="Persona" rx="20" ry="20" style="stroke:#0077B6;stroke-width:0.5;" width="86" x="191.5" y="553"/><ellipse cx="205.5" cy="568.9844" fill="#ADD1B2" rx="10" ry="10" style="stroke:#181818;stroke-width:1.0;"/><path d="M207.3594,565.7344 C206.7031,565.4219 206.2813,565.3281 205.6563,565.3281 C203.8125,565.3281 202.3906,566.7813 202.3906,568.7031 L202.3906,569.5 C202.3906,571.3281 203.8906,572.6563 205.9219,572.6563 C206.7813,572.6563 207.6094,572.4375 208.125,572.0469 C208.5469,571.7656 208.7656,571.4531 208.7656,571.1719 C208.7656,570.8594 208.4844,570.5781 208.1719,570.5781 C208.0156,570.5781 207.875,570.6406 207.7344,570.7656 C207.4063,571.1094 207.4063,571.1094 207.2813,571.1719 C206.9844,571.3594 206.5,571.4531 205.9531,571.4531 C204.5156,571.4531 203.5938,570.6719 203.5938,569.4688 L203.5938,568.7031 C203.5938,567.4375 204.4844,566.5156 205.7031,566.5156 C206.1094,566.5156 206.5469,566.625 206.875,566.8125 C207.2188,567 207.3438,567.1563 207.4063,567.4375 C207.4531,567.7344 207.4688,567.8125 207.5625,567.9063 C207.6563,568.0156 207.8281,568.0781 207.9844,568.0781 C208.1875,568.0781 208.3594,567.9844 208.4844,567.8281 C208.5625,567.7188 208.5938,567.5938 208.5938,567.2813 L208.5938,566.2813 C208.5938,565.9844 208.5781,565.8906 208.5,565.7813 C208.3906,565.5938 208.2031,565.4844 207.9844,565.4844 C207.7813,565.4844 207.6406,565.5625 207.4844,565.7813 L207.3594,565.7344 Z " fill="#EEEEEE"/><text fill="#03045E" font-family="sans-serif" font-size="12" lengthAdjust="spacing" textLength="48" x="222.5" y="573.1387">Persona</text><line style="stroke:#0077B6;stroke-width:0.5;" x1="192.5" x2="276.5" y1="584.9688" y2="584.9688"/><line style="stroke:#0077B6;stroke-width:0.5;" x1="192.5" x2="276.5" y1="592.9688" y2="592.9688"/></g><!--MD5=[5b4f064c764da4f58c16eeedcd42223b]
link UseCase to UseCase--><g id="link_UseCase_UseCase"><path codeLine="200" d="M482.682,37.23 C502.755,38.589 517.5,43.846 517.5,53 C517.5,61.368 505.18,66.479 487.733,68.333 " fill="none" id="UseCase-to-UseCase" style="stroke:#FF9900;stroke-width:1.0;"/><polygon fill="#FF9900" points="482.682,68.77,491.9936,71.9785,487.6634,68.3386,491.3033,64.0084,482.682,68.77" style="stroke:#FF9900;stroke-width:1.0;"/><text fill="#EEEEEE" font-family="sans-serif" font-size="12" font-weight="bold" lengthAdjust="spacing" textLength="62" x="527.5" y="57.6387">requires</text></g><!--MD5=[7c5c9ff51b4239ec396beeb1320b8b12]
link Vocabulary to Concept--><g id="link_Vocabulary_Concept"><path codeLine="201" d="M137.147,230.032 C134.713,245.849 134.133,267.243 135.405,285.721 " fill="none" id="Vocabulary-to-Concept" style="stroke:#FF9900;stroke-width:1.0;"/><polygon fill="#FF9900" points="135.813,290.848,139.0855,281.5587,135.4159,285.8638,131.1108,282.1941,135.813,290.848" style="stroke:#FF9900;stroke-width:1.0;"/><text fill="#EEEEEE" font-family="sans-serif" font-size="12" font-weight="bold" lengthAdjust="spacing" textLength="7" x="122.0185" y="253.2718">*</text><text fill="#EEEEEE" font-family="sans-serif" font-size="12" font-weight="bold" lengthAdjust="spacing" textLength="7" x="121.0356" y="276.1004">*</text></g><!--MD5=[7c5c9ff51b4239ec396beeb1320b8b12]
link Vocabulary to Concept--><g id="link_Vocabulary_Concept"><path codeLine="207" d="M159.193,235.065 C161.147,250.225 161.516,269.183 160.302,285.78 " fill="none" id="Vocabulary-Concept" style="stroke:#FF9900;stroke-width:1.0;"/><polygon fill="#FF9900" points="159.874,290.848,164.616,282.2159,160.2941,285.8657,156.6443,281.5438,159.874,290.848" style="stroke:#FF9900;stroke-width:1.0;"/><polygon fill="#FF9900" points="158.462,230.032,155.7972,239.5135,159.1807,234.9801,163.7141,238.3636,158.462,230.032" style="stroke:#FF9900;stroke-width:1.0;"/></g><!--MD5=[a6acaf88308314c8d8a00364cdb35bcd]
link Vocabulary to Term--><g id="link_Vocabulary_Term"><path codeLine="202" d="M113.315,230.321 C93.3555,245.517 69.1068,266.949 53.5,291 C22.7518,338.384 11.364,358.43 21.5,414 C23.0199,422.333 25.7808,431.057 28.7756,438.967 " fill="none" id="Vocabulary-to-Term" style="stroke:#FF9900;stroke-width:1.0;"/><polygon fill="#FF9900" points="30.6616,443.776,31.0992,433.9369,28.8359,439.1212,23.6516,436.858,30.6616,443.776" style="stroke:#FF9900;stroke-width:1.0;"/><text fill="#EEEEEE" font-family="sans-serif" font-size="12" font-weight="bold" lengthAdjust="spacing" textLength="7" x="93.1963" y="253.1861">*</text><text fill="#EEEEEE" font-family="sans-serif" font-size="12" font-weight="bold" lengthAdjust="spacing" textLength="7" x="14.9623" y="429.1448">*</text></g><!--MD5=[2af6f9f859e32921e6fee972fdfca398]
link Story to Concept--><g id="link_Story_Concept"><path codeLine="203" d="M349.635,552.7023 C311.096,509.6695 228.421,417.356 181.623,365.101 " fill="none" id="Story-to-Concept" style="stroke:#FF9900;stroke-width:1.0;"/><polygon fill="#FF9900" points="178.04,361.1,181.065,370.4728,181.3759,364.8245,187.0242,365.1354,178.04,361.1" style="stroke:#FF9900;stroke-width:1.0;"/><text fill="#EEEEEE" font-family="sans-serif" font-size="12" font-weight="bold" lengthAdjust="spacing" textLength="38" x="297.5" y="472.6387">input</text><text fill="#EEEEEE" font-family="sans-serif" font-size="12" font-weight="bold" lengthAdjust="spacing" textLength="7" x="171" y="384.1648">*</text></g><!--MD5=[2af6f9f859e32921e6fee972fdfca398]
link Story to Concept--><g id="link_Story_Concept"><path codeLine="204" d="M372.301,552.8184 C373.308,524.6042 371.076,476.69 348.5,444 C319.72,402.327 270.89,373.403 228.566,354.739 " fill="none" id="Story-to-Concept-1" style="stroke:#FF9900;stroke-width:1.0;"/><polygon fill="#FF9900" points="223.967,352.74,230.627,359.9957,228.5527,354.7328,233.8155,352.6586,223.967,352.74" style="stroke:#FF9900;stroke-width:1.0;"/><text fill="#EEEEEE" font-family="sans-serif" font-size="12" font-weight="bold" lengthAdjust="spacing" textLength="50" x="372.5" y="472.6387">output</text><text fill="#EEEEEE" font-family="sans-serif" font-size="12" font-weight="bold" lengthAdjust="spacing" textLength="7" x="235.4453" y="348.371">*</text></g><!--MD5=[65bd5a11773b5263145bd20dc17a5c2b]
link Term to Concept--><g id="link_Term_Concept"><path codeLine="205" d="M76.2944,452.633 C93.4868,443.861 113.143,431.026 125.5,414 C135.448,400.293 140.915,382.539 143.912,366.646 " fill="none" id="Term-to-Concept" style="stroke:#FF9900;stroke-width:1.0;"/><polygon fill="#FF9900" points="144.836,361.337,139.35,369.5165,143.9774,366.2627,147.2312,370.8902,144.836,361.337" style="stroke:#FF9900;stroke-width:1.0;"/><text fill="#EEEEEE" font-family="sans-serif" font-size="12" font-weight="bold" lengthAdjust="spacing" textLength="23" x="114.8276" y="384.1528">1..*</text></g><!--MD5=[0b9ce2bb897767c3da65605cac282c3f]
link Concept to Term--><g id="link_Concept_Term"><path codeLine="211" d="M71.2623,355.471 C56.5935,364.542 43.1288,376.196 34.5,391 C26.1671,405.296 27.63,423.73 31.3144,438.863 " fill="none" id="Concept-to-Term" style="stroke:#FF9900;stroke-width:1.0;"/><polygon fill="#FF9900" points="32.6381,443.857,34.198,434.1325,31.3567,439.024,26.4652,436.1827,32.6381,443.857" style="stroke:#FF9900;stroke-width:1.0;"/><text fill="#EEEEEE" font-family="sans-serif" font-size="12" font-weight="bold" lengthAdjust="spacing" textLength="73" x="39.5" y="407.1387">preferred</text></g><!--MD5=[fcfd20e127d2c734c58f2d8f8137456e]
link Concept to OntologyAxiom--><g id="link_Concept_OntologyAxiom"><path codeLine="206" d="M223.748,326 C265.845,326 307.942,326 350.038,326 " fill="none" id="Concept-to-OntologyAxiom" style="stroke:#FF9900;stroke-width:1.0;"/><polygon fill="#FF9900" points="355.172,326,346.172,322,350.172,326,346.172,330,355.172,326" style="stroke:#FF9900;stroke-width:1.0;"/></g><!--MD5=[090ff7e78b76a5e019be0fc960fabf6e]
link UseCase to Story--><g id="link_UseCase_Story"><path codeLine="208" d="M472.859,99.24 C506.553,125.189 538.5,161.313 538.5,205 C538.5,205 538.5,205 538.5,469 C538.5,529.3445 460.435,557.139 410.734,568.7197 " fill="none" id="UseCase-to-Story" style="stroke:#FF9900;stroke-width:1.0;"/><polygon fill="#FF9900" points="405.718,569.8562,415.3792,571.7697,410.5945,568.7519,413.6123,563.9672,405.718,569.8562" style="stroke:#FF9900;stroke-width:1.0;"/><text fill="#EEEEEE" font-family="sans-serif" font-size="12" font-weight="bold" lengthAdjust="spacing" textLength="23" x="417.4842" y="561.3697">1..*</text></g><!--MD5=[9a2ef6af6bc1f6f39a40ded2b9fa534e]
reverse link Concept to Persona--><g id="link_Concept_Persona"><path codeLine="209" d="M166.071,380.15 C184.748,433.605 212.68,513.5502 226.36,552.7023 " fill="none" id="Concept-backto-Persona" style="stroke:#FF9900;stroke-width:1.0;"/><polygon fill="none" points="159.403,382.29,159.415,361.1,172.62,377.672,159.403,382.29" style="stroke:#FF9900;stroke-width:1.0;"/></g><!--MD5=[bfb79b1800c482b177d08bc550b0bb05]
link Concept to Concept--><g id="link_Concept_Concept"><path codeLine="210" d="M223.505,314.114 C243.437,314.819 258.5,318.781 258.5,326 C258.5,332.598 245.915,336.476 228.529,337.632 " fill="none" id="Concept-to-Concept" style="stroke:#FF9900;stroke-width:1.0;"/><polygon fill="#FF9900" points="223.505,337.886,232.6957,341.4258,228.4986,337.6332,232.2912,333.436,223.505,337.886" style="stroke:#FF9900;stroke-width:1.0;"/><text fill="#EEEEEE" font-family="sans-serif" font-size="12" font-weight="bold" lengthAdjust="spacing" textLength="59" x="268.5" y="330.6387">broader</text></g><!--MD5=[23caf1614fca80c80c66d0ac2a723a64]
link UseCase to Vocabulary--><g id="link_UseCase_Vocabulary"><path codeLine="212" d="M321.428,99.1 C278.362,125.322 225.65,157.417 189.618,179.356 " fill="none" id="UseCase-to-Vocabulary" style="stroke:#FF9900;stroke-width:1.0;"/><polygon fill="#FF9900" points="185.308,181.98,195.0754,180.7158,189.5786,179.3796,190.9148,173.8829,185.308,181.98" style="stroke:#FF9900;stroke-width:1.0;"/><text fill="#EEEEEE" font-family="sans-serif" font-size="12" font-weight="bold" lengthAdjust="spacing" textLength="148" x="276.5" y="145.1387">use case vocabulary</text><text fill="#EEEEEE" font-family="sans-serif" font-size="12" font-weight="bold" lengthAdjust="spacing" textLength="8" x="181.3189" y="166.9758">1</text></g><!--MD5=[bedbc4a6ff684565a96611ed7f275301]
link Persona to Story--><g id="link_Persona_Story"><path codeLine="213" d="M277.531,577 C292.418,577 307.305,577 322.191,577 " fill="none" id="Persona-to-Story" style="stroke:#FF9900;stroke-width:1.0;"/><polygon fill="none" points="335.274,577,329.274,573,323.274,577,329.274,581,335.274,577" style="stroke:#FF9900;stroke-width:1.0;"/><text fill="#EEEEEE" font-family="sans-serif" font-size="12" font-weight="bold" lengthAdjust="spacing" textLength="8" x="289.3451" y="569.6074">1</text><text fill="#EEEEEE" font-family="sans-serif" font-size="12" font-weight="bold" lengthAdjust="spacing" textLength="24" x="299.43" y="569.6074">0..*</text></g><!--MD5=[0d46f91eba1533fa8274e3c0d7564824]
@startuml
!define BG_MAIN_COLOR      #1A618C
!define BG_SECONDARY_COLOR #616768
!define BG_PACKAGE_COLOR   #7a209f
!define BORDER_COLOR       #EEEEEE
!define FONT_COLOR         #EEEEEE

skinparam backgroundColor       #transparent
skinparam backgroundColor       %hsl_color(232, 15, 21)
skinparam HyperLinkColor        #lightgreen

' include the general skinparams for both, light and dark
' to overwrite with the given settings
!define BORDER_THICKNESS 1

skinparam Padding 4
skinparam RoundCorner 40
skinparam Shadowing true
skinparam HyperlinkUnderline false
skinparam handwritten false

skinparam Default {
'FontName "Open Sans Semibold"
FontColor FONT_COLOR
FontSize 12
}

skinparam Arrow {
Color FONT_COLOR
FontColor FONT_COLOR
FontStyle Bold
}

skinparam package {
FontColor FONT_COLOR
BackgroundColor BG_MAIN_COLOR
BorderColor BORDER_COLOR
}
skinparam node {
FontColor FONT_COLOR
BackgroundColor BG_PACKAGE_COLOR
BorderColor BORDER_COLOR
}
skinparam component {
BackgroundColor BG_MAIN_COLOR
BorderColor BORDER_COLOR
FontColor FONT_COLOR
Style uml2
}

skinparam database {
BackgroundColor BG_MAIN_COLOR
BorderColor BORDER_COLOR
FontColor FONT_COLOR
}

skinparam cloud {
BackgroundColor BG_MAIN_COLOR
BorderColor BORDER_COLOR
FontColor FONT_COLOR
}

skinparam collections {
BackgroundColor BG_MAIN_COLOR
BorderColor BORDER_COLOR
FontColor FONT_COLOR
}
skinparam Control {
BackgroundColor BG_MAIN_COLOR
BorderColor BORDER_COLOR
FontColor FONT_COLOR
}
skinparam Boundary {
BackgroundColor BG_MAIN_COLOR
BorderColor BORDER_COLOR
FontColor FONT_COLOR
}
skinparam Entity {
BackgroundColor BG_MAIN_COLOR
BorderColor BORDER_COLOR
FontColor FONT_COLOR
}
skinparam interface {
BackgroundColor BG_MAIN_COLOR
BorderColor BORDER_COLOR
FontColor FONT_COLOR
}
skinparam SequenceParticipantBorderThickness 3
skinparam sequence {
ParticipantBackgroundColor BG_MAIN_COLOR
ParticipantBorderColor BORDER_COLOR
ParticipantFontStyle normal
ParticipantFontColor FONT_COLOR
LifeLineBorderColor BORDER_COLOR
LifeLineBackgroundColor BG_MAIN_COLOR
ArrowColor FONT_COLOR
ArrowBorderColor BORDER_COLOR
ArrowFontColor FONT_COLOR
ArrowThickness 3
ActorBackgroundColor BG_MAIN_COLOR
ActorBorderColor BORDER_COLOR
ActorFontColor FONT_COLOR
}

' C4 Styling
' ##################################

skinparam rectangle<<person>> {
StereotypeFontColor FONT_COLOR
FontColor FONT_COLOR
BackgroundColor BG_MAIN_COLOR
BorderColor BORDER_COLOR
BorderThickness BORDER_THICKNESS
}

skinparam rectangle<<external_person>> {
StereotypeFontColor FONT_COLOR
FontColor FONT_COLOR
BackgroundColor BG_SECONDARY_COLOR
BorderColor BORDER_COLOR
BorderThickness BORDER_THICKNESS
}

skinparam rectangle<<system>> {
StereotypeFontColor FONT_COLOR
FontColor FONT_COLOR
BackgroundColor BG_MAIN_COLOR
BorderColor BORDER_COLOR
BorderThickness BORDER_THICKNESS
}

skinparam rectangle<<external_system>> {
StereotypeFontColor FONT_COLOR
FontColor FONT_COLOR
BackgroundColor BG_SECONDARY_COLOR
BorderColor BORDER_COLOR
BorderThickness BORDER_THICKNESS
}

skinparam database<<system>> {
StereotypeFontColor FONT_COLOR
FontColor FONT_COLOR
BackgroundColor BG_MAIN_COLOR
BorderColor BORDER_COLOR
BorderThickness BORDER_THICKNESS
}

skinparam database<<external_system>> {
StereotypeFontColor FONT_COLOR
FontColor FONT_COLOR
BackgroundColor BG_SECONDARY_COLOR
BorderColor BORDER_COLOR
BorderThickness BORDER_THICKNESS
}

skinparam rectangle<<boundary>> {
Shadowing false
StereotypeFontSize 0
BackgroundColor BG_PACKAGE_COLOR
StereotypeFontColor FONT_COLOR
FontColor FONT_COLOR
BorderColor BORDER_COLOR
BorderStyle dashed
BorderThickness BORDER_THICKNESS
}
skinparam rectangle<<container>> {
Shadowing false
StereotypeFontSize 14
BackgroundColor BG_MAIN_COLOR
StereotypeFontColor FONT_COLOR
FontColor FONT_COLOR
BorderColor BORDER_COLOR
BorderThickness BORDER_THICKNESS
}

skinparam state {
BackgroundColor #9397B2
FontColor white
AttributeFontColor #03045e
BorderColor #0077b6
}

skinparam class {
BackgroundColor #9397B2
FontColor white
AttributeFontColor #03045e
BorderColor #0077b6
}

skinparam arrowColor #FF9900
skinparam arrowThickness 1

class Concept {
- type : ConceptType
}
class Concept [[http://plantuml.com{Optional tooltip} This label is printed]]
class UseCase {
- vocabulary: Vocabulary
- stories: Story[]
}
UseCase - -> UseCase : requires
Vocabulary "*" - -> "*" Concept
Vocabulary "*" - -> "*" Term
Story - -> "*" Concept : input
Story - -> "*" Concept : output
Term - -> "1..*" Concept
Concept - - -right-> OntologyAxiom
Vocabulary <- -> Concept
UseCase - -> "1..*" Story
Persona - -up-|> Concept
Concept - -> Concept : broader
Concept - -> Term : preferred
UseCase - -> "1" Vocabulary : use case vocabulary
Persona "1" -right-o "0..*" Story
@enduml

@startuml

skinparam backgroundColor       #transparent
skinparam backgroundColor       #2E303E
skinparam HyperLinkColor        #lightgreen


skinparam Padding 4
skinparam RoundCorner 40
skinparam Shadowing true
skinparam HyperlinkUnderline false
skinparam handwritten false

skinparam Default {
FontColor #EEEEEE
FontSize 12
}

skinparam Arrow {
Color #EEEEEE
FontColor #EEEEEE
FontStyle Bold
}

skinparam package {
FontColor #EEEEEE
BackgroundColor #1A618C
BorderColor #EEEEEE
}
skinparam node {
FontColor #EEEEEE
BackgroundColor #7a209f
BorderColor #EEEEEE
}
skinparam component {
BackgroundColor #1A618C
BorderColor #EEEEEE
FontColor #EEEEEE
Style uml2
}

skinparam database {
BackgroundColor #1A618C
BorderColor #EEEEEE
FontColor #EEEEEE
}

skinparam cloud {
BackgroundColor #1A618C
BorderColor #EEEEEE
FontColor #EEEEEE
}

skinparam collections {
BackgroundColor #1A618C
BorderColor #EEEEEE
FontColor #EEEEEE
}
skinparam Control {
BackgroundColor #1A618C
BorderColor #EEEEEE
FontColor #EEEEEE
}
skinparam Boundary {
BackgroundColor #1A618C
BorderColor #EEEEEE
FontColor #EEEEEE
}
skinparam Entity {
BackgroundColor #1A618C
BorderColor #EEEEEE
FontColor #EEEEEE
}
skinparam interface {
BackgroundColor #1A618C
BorderColor #EEEEEE
FontColor #EEEEEE
}
skinparam SequenceParticipantBorderThickness 3
skinparam sequence {
ParticipantBackgroundColor #1A618C
ParticipantBorderColor #EEEEEE
ParticipantFontStyle normal
ParticipantFontColor #EEEEEE
LifeLineBorderColor #EEEEEE
LifeLineBackgroundColor #1A618C
ArrowColor #EEEEEE
ArrowBorderColor #EEEEEE
ArrowFontColor #EEEEEE
ArrowThickness 3
ActorBackgroundColor #1A618C
ActorBorderColor #EEEEEE
ActorFontColor #EEEEEE
}


skinparam rectangle<<person>> {
StereotypeFontColor #EEEEEE
FontColor #EEEEEE
BackgroundColor #1A618C
BorderColor #EEEEEE
BorderThickness 1
}

skinparam rectangle<<external_person>> {
StereotypeFontColor #EEEEEE
FontColor #EEEEEE
BackgroundColor #616768
BorderColor #EEEEEE
BorderThickness 1
}

skinparam rectangle<<system>> {
StereotypeFontColor #EEEEEE
FontColor #EEEEEE
BackgroundColor #1A618C
BorderColor #EEEEEE
BorderThickness 1
}

skinparam rectangle<<external_system>> {
StereotypeFontColor #EEEEEE
FontColor #EEEEEE
BackgroundColor #616768
BorderColor #EEEEEE
BorderThickness 1
}

skinparam database<<system>> {
StereotypeFontColor #EEEEEE
FontColor #EEEEEE
BackgroundColor #1A618C
BorderColor #EEEEEE
BorderThickness 1
}

skinparam database<<external_system>> {
StereotypeFontColor #EEEEEE
FontColor #EEEEEE
BackgroundColor #616768
BorderColor #EEEEEE
BorderThickness 1
}

skinparam rectangle<<boundary>> {
Shadowing false
StereotypeFontSize 0
BackgroundColor #7a209f
StereotypeFontColor #EEEEEE
FontColor #EEEEEE
BorderColor #EEEEEE
BorderStyle dashed
BorderThickness 1
}
skinparam rectangle<<container>> {
Shadowing false
StereotypeFontSize 14
BackgroundColor #1A618C
StereotypeFontColor #EEEEEE
FontColor #EEEEEE
BorderColor #EEEEEE
BorderThickness 1
}

skinparam state {
BackgroundColor #9397B2
FontColor white
AttributeFontColor #03045e
BorderColor #0077b6
}

skinparam class {
BackgroundColor #9397B2
FontColor white
AttributeFontColor #03045e
BorderColor #0077b6
}

skinparam arrowColor #FF9900
skinparam arrowThickness 1

class Concept {
- type : ConceptType
}
class Concept [[http://plantuml.com{Optional tooltip} This label is printed]]
class UseCase {
- vocabulary: Vocabulary
- stories: Story[]
}
UseCase - -> UseCase : requires
Vocabulary "*" - -> "*" Concept
Vocabulary "*" - -> "*" Term
Story - -> "*" Concept : input
Story - -> "*" Concept : output
Term - -> "1..*" Concept
Concept - - -right-> OntologyAxiom
Vocabulary <- -> Concept
UseCase - -> "1..*" Story
Persona - -up-|> Concept
Concept - -> Concept : broader
Concept - -> Term : preferred
UseCase - -> "1" Vocabulary : use case vocabulary
Persona "1" -right-o "0..*" Story
@enduml

PlantUML version 1.2022.2beta6(Unknown compile time)
(GPL source distribution)
Java Runtime: Java(TM) SE Runtime Environment
JVM: Java HotSpot(TM) 64-Bit Server VM
Default Encoding: UTF-8
Language: en
Country: US
--></g></svg>