<?xml version="1.0" encoding="UTF-8" standalone="no"?>
<!DOCTYPE svg PUBLIC "-//W3C//DTD SVG 1.1//EN" "http://www.w3.org/Graphics/SVG/1.1/DTD/svg11.dtd">
<svg width="100%" height="100%" viewBox="0 0 7500 2000" version="1.1" xmlns="http://www.w3.org/2000/svg" xmlns:xlink="http://www.w3.org/1999/xlink" xml:space="preserve" xmlns:serif="http://www.serif.com/" style="fill-rule:evenodd;clip-rule:evenodd;stroke-linecap:round;stroke-linejoin:round;stroke-miterlimit:10;">
    <g transform="matrix(12.2449,0,0,12.2449,3705.95,175.835)">
        <g>
            <g>
                <g transform="matrix(1,0,0,1,-330.641,-20.1932)">
                    <g id="SvgjsG1234" transform="matrix(2.7,0,0,2.7,43,20)">
                        <circle cx="25" cy="25" r="25" style="fill:rgb(45,43,117);"/>
                    </g>
                    <g transform="matrix(0.875,0,0,0.875,67.25,44.25)">
                        <circle cx="17.998" cy="18" r="3" style="fill:rgb(243,228,11);stroke:rgb(243,228,11);stroke-width:2px;"/>
                    </g>
                    <g transform="matrix(0.875,0,0,0.875,67.25,44.25)">
                        <circle cx="33.998" cy="18" r="3" style="fill:rgb(243,228,11);stroke:rgb(243,228,11);stroke-width:2px;"/>
                    </g>
                    <g transform="matrix(0.875,0,0,0.875,67.25,44.25)">
                        <circle cx="49.997" cy="18.001" r="5.499" style="fill:rgb(243,228,11);stroke:rgb(243,228,11);stroke-width:2px;"/>
                    </g>
                    <g transform="matrix(0.875,0,0,0.875,67.25,44.25)">
                        <circle cx="65.999" cy="18" r="5.5" style="fill:rgb(243,228,11);stroke:rgb(243,228,11);stroke-width:2px;"/>
                    </g>
                    <g transform="matrix(0.875,0,0,0.875,67.25,44.25)">
                        <circle cx="81.999" cy="18.001" r="8.001" style="fill:rgb(243,228,11);stroke:rgb(243,228,11);stroke-width:2px;"/>
                    </g>
                    <g transform="matrix(0.875,0,0,0.875,67.25,44.25)">
                        <circle cx="17.998" cy="34" r="3" style="fill:rgb(243,228,11);stroke:rgb(243,228,11);stroke-width:2px;"/>
                    </g>
                    <g transform="matrix(0.875,0,0,0.875,67.25,44.25)">
                        <path d="M39.497,34.001C39.497,37.036 37.037,39.499 33.999,39.499C30.959,39.499 28.497,37.036 28.497,34.001C28.497,30.961 30.96,28.499 33.999,28.499C37.037,28.5 39.497,30.961 39.497,34.001Z" style="fill:rgb(243,228,11);fill-rule:nonzero;stroke:rgb(243,228,11);stroke-width:2px;"/>
                    </g>
                    <g transform="matrix(0.875,0,0,0.875,67.25,44.25)">
                        <circle cx="49.997" cy="34" r="5.499" style="fill:rgb(243,228,11);stroke:rgb(243,228,11);stroke-width:2px;"/>
                    </g>
                    <g transform="matrix(0.875,0,0,0.875,67.25,44.25)">
                        <path d="M73.997,34.001C73.997,38.418 70.417,41.999 66.001,41.999C61.581,41.999 57.998,38.418 57.998,34.001C57.998,29.581 61.581,25.998 66.001,25.998C70.417,25.999 73.997,29.582 73.997,34.001Z" style="fill:rgb(243,228,11);fill-rule:nonzero;stroke:rgb(243,228,11);stroke-width:2px;"/>
                    </g>
                    <g transform="matrix(0.875,0,0,0.875,67.25,44.25)">
                        <circle cx="82" cy="34" r="5.5" style="fill:rgb(243,228,11);stroke:rgb(243,228,11);stroke-width:2px;"/>
                    </g>
                    <g transform="matrix(0.875,0,0,0.875,67.25,44.25)">
                        <circle cx="17.997" cy="50" r="5.5" style="fill:rgb(243,228,11);stroke:rgb(243,228,11);stroke-width:2px;"/>
                    </g>
                    <g transform="matrix(0.875,0,0,0.875,67.25,44.25)">
                        <circle cx="33.997" cy="50" r="5.5" style="fill:rgb(243,228,11);stroke:rgb(243,228,11);stroke-width:2px;"/>
                    </g>
                    <g transform="matrix(0.875,0,0,0.875,67.25,44.25)">
                        <circle cx="49.998" cy="50" r="8" style="fill:rgb(243,228,11);stroke:rgb(243,228,11);stroke-width:2px;"/>
                    </g>
                    <g transform="matrix(0.875,0,0,0.875,67.25,44.25)">
                        <circle cx="65.999" cy="50" r="5.5" style="fill:rgb(243,228,11);stroke:rgb(243,228,11);stroke-width:2px;"/>
                    </g>
                    <g transform="matrix(0.875,0,0,0.875,67.25,44.25)">
                        <circle cx="82" cy="50" r="5.5" style="fill:rgb(243,228,11);stroke:rgb(243,228,11);stroke-width:2px;"/>
                    </g>
                    <g transform="matrix(0.875,0,0,0.875,67.25,44.25)">
                        <circle cx="17.997" cy="66" r="5.5" style="fill:rgb(243,228,11);stroke:rgb(243,228,11);stroke-width:2px;"/>
                    </g>
                    <g transform="matrix(0.875,0,0,0.875,67.25,44.25)">
                        <circle cx="33.998" cy="66" r="8" style="fill:rgb(243,228,11);stroke:rgb(243,228,11);stroke-width:2px;"/>
                    </g>
                    <g transform="matrix(0.875,0,0,0.875,67.25,44.25)">
                        <circle cx="49.997" cy="66" r="5.499" style="fill:rgb(243,228,11);stroke:rgb(243,228,11);stroke-width:2px;"/>
                    </g>
                    <g transform="matrix(0.875,0,0,0.875,67.25,44.25)">
                        <circle cx="65.999" cy="66" r="5.5" style="fill:rgb(243,228,11);stroke:rgb(243,228,11);stroke-width:2px;"/>
                    </g>
                    <g transform="matrix(0.875,0,0,0.875,67.25,44.25)">
                        <circle cx="81.999" cy="66" r="3" style="fill:rgb(243,228,11);stroke:rgb(243,228,11);stroke-width:2px;"/>
                    </g>
                    <g transform="matrix(0.875,0,0,0.875,67.25,44.25)">
                        <circle cx="17.999" cy="82" r="7.999" style="fill:rgb(243,228,11);stroke:rgb(243,228,11);stroke-width:2px;"/>
                    </g>
                    <g transform="matrix(0.875,0,0,0.875,67.25,44.25)">
                        <path d="M39.497,82C39.497,85.035 37.037,87.498 33.999,87.498C30.959,87.498 28.497,85.035 28.497,82C28.497,78.959 30.96,76.5 33.999,76.5C37.037,76.5 39.497,78.959 39.497,82Z" style="fill:rgb(243,228,11);fill-rule:nonzero;stroke:rgb(243,228,11);stroke-width:2px;"/>
                    </g>
                    <g transform="matrix(0.875,0,0,0.875,67.25,44.25)">
                        <circle cx="49.997" cy="82" r="5.499" style="fill:rgb(243,228,11);stroke:rgb(243,228,11);stroke-width:2px;"/>
                    </g>
                    <g transform="matrix(0.875,0,0,0.875,67.25,44.25)">
                        <circle cx="65.998" cy="82" r="3.001" style="fill:rgb(243,228,11);stroke:rgb(243,228,11);stroke-width:2px;"/>
                    </g>
                    <g transform="matrix(0.875,0,0,0.875,67.25,44.25)">
                        <circle cx="81.999" cy="82" r="3" style="fill:rgb(243,228,11);stroke:rgb(243,228,11);stroke-width:2px;"/>
                    </g>
                </g>
                <g id="SvgjsG1236" transform="matrix(6.1499,0,0,6.1499,-120.896,-48.2786)">
                    <path d="M8.26,22.1C8.26,22.78 8.66,22.92 9.44,22.84L9.44,23.4C7.88,23.76 7.34,24.24 6.84,24.24C6.58,24.24 6.42,24.1 6.44,23.76L6.54,22.24C6.06,23.12 5.06,24.24 3.42,24.24C2.08,24.24 0.5,23.58 0.5,21.7C0.5,19.96 1.6,18.7 6.44,17.68L6.44,17.08C6.44,15.18 6.42,14.32 5.32,14.32C2.2,14.32 3.68,17.3 2.06,17.3C1.48,17.3 1.2,16.94 1.2,16.46C1.2,15.02 3.04,13.8 5.34,13.8C7.7,13.8 8.26,14.64 8.26,17.08L8.26,22.1ZM4.04,23.42C5.36,23.42 6.18,22.04 6.44,21.4L6.44,18.24C2.76,19.06 2.44,20.66 2.44,21.6C2.44,22.7 3.04,23.42 4.04,23.42ZM18.92,13.84C19.7,13.84 19.78,14.12 19.78,14.66C19.78,15.12 19.68,15.38 19.28,15.34C18.88,15.28 18.66,15.22 18.44,15.22C18.02,15.22 17.96,15.5 18.06,15.78C18.26,16.24 18.42,16.74 18.42,17.36C18.42,19.3 16.96,20.92 14.58,20.92C13.74,20.92 13.1,20.64 12.44,20.64C11.88,20.64 11.64,20.92 11.64,21.22C11.64,21.72 12.3,21.94 13.48,22.12L15.92,22.5C18.16,22.82 19.3,23.48 19.3,25.18C19.3,27.08 17.26,28.34 14.7,28.34C12.06,28.34 10.3,27.32 10.3,25.5C10.3,24.68 10.64,23.98 11.44,23.98C11.98,23.98 12.28,24.24 12.28,24.7C12.28,25.22 12.08,25.36 12.08,26.14C12.08,27 13.04,27.82 14.74,27.82C16.8,27.82 17.74,26.88 17.74,25.44C17.74,24.5 17.16,24.22 15.9,23.98L12.68,23.44C10.94,23.12 10.34,22.52 10.34,21.68C10.34,20.84 11.1,20.18 12.44,20.28C11.42,19.7 10.7,18.62 10.7,17.36C10.7,15.44 12.02,13.82 14.52,13.82C16.14,13.82 17,14.54 17.54,15.16C17.72,14.38 18.12,13.84 18.92,13.84ZM14.56,20.34C16.08,20.34 16.56,18.78 16.56,17.38C16.56,16 16.06,14.36 14.56,14.36C13.08,14.36 12.56,16 12.56,17.38C12.56,18.78 13.08,20.34 14.56,20.34ZM29.66,22.74C29.66,23.24 30.2,23.4 30.86,23.48L30.86,24C29.46,23.94 28.06,23.94 26.68,24L26.68,23.48C27.32,23.4 27.84,23.24 27.84,22.74L27.84,17.22C27.84,15.64 27.54,14.6 26.44,14.6C24.96,14.6 23.82,16.14 23.6,16.5L23.6,22.74C23.6,23.24 24.14,23.4 24.78,23.48L24.78,24C23.4,23.94 22,23.94 20.6,24L20.6,23.48C21.26,23.4 21.78,23.24 21.78,22.74L21.78,15.94C21.78,15.26 21.36,15.08 20.58,15.18L20.58,14.66C22.12,14.42 22.8,13.76 23.18,13.76C23.46,13.76 23.64,13.94 23.6,14.26L23.42,15.96C23.8,15.38 25.06,13.8 26.9,13.8C28.56,13.8 29.66,14.48 29.66,17.22L29.66,22.74ZM36.2,13.82C38.54,13.82 40.72,15.66 40.72,18.9C40.72,22.26 38.54,24.2 36.28,24.2C33.94,24.2 31.76,22.26 31.76,19.06C31.76,15.66 33.94,13.82 36.2,13.82ZM38.68,19.38C38.68,16.42 37.6,14.36 35.92,14.36C34.58,14.36 33.76,15.66 33.76,18.58C33.76,21.54 34.84,23.62 36.54,23.62C37.88,23.62 38.68,22.32 38.68,19.38ZM48.78,21.32C48.78,23 47.2,24.22 45.76,24.22C44.48,24.22 43.82,23.54 43.16,23.54C42.84,23.54 42.68,23.72 42.62,23.98L42.12,23.98L41.9,21.32L42.12,21.32C42.36,21.32 42.58,21.34 42.62,21.58C42.9,22.72 44.54,23.66 45.6,23.66C46.56,23.66 47.18,23 47.18,22.1C47.18,20.92 46.16,20.44 44.62,19.62C43.16,18.86 41.92,17.94 41.92,16.38C41.92,15 43.1,13.82 44.78,13.82C46.02,13.82 46.46,14.38 47.02,14.38C47.24,14.38 47.42,14.24 47.5,13.98L48,13.98L48.18,16.5L47.94,16.5C47.68,16.5 47.6,16.42 47.52,16.22C46.98,15.16 45.9,14.32 44.94,14.32C43.96,14.32 43.44,15.04 43.44,15.84C43.44,16.82 44.12,17.3 45.36,17.94C46.64,18.6 48.78,19.48 48.78,21.32ZM51.26,24.2C50.68,24.2 50.18,23.7 50.18,23.1C50.18,22.5 50.68,22 51.26,22C51.86,22 52.36,22.5 52.36,23.1C52.36,23.7 51.86,24.2 51.26,24.2ZM61.52,22.1C61.52,22.78 61.92,22.92 62.7,22.84L62.7,23.4C61.14,23.76 60.6,24.24 60.1,24.24C59.84,24.24 59.68,24.1 59.7,23.76L59.8,22.24C59.32,23.12 58.32,24.24 56.68,24.24C55.34,24.24 53.76,23.58 53.76,21.7C53.76,19.96 54.86,18.7 59.7,17.68L59.7,17.08C59.7,15.18 59.68,14.32 58.58,14.32C55.46,14.32 56.94,17.3 55.32,17.3C54.74,17.3 54.46,16.94 54.46,16.46C54.46,15.02 56.3,13.8 58.6,13.8C60.96,13.8 61.52,14.64 61.52,17.08L61.52,22.1ZM57.3,23.42C58.62,23.42 59.44,22.04 59.7,21.4L59.7,18.24C56.02,19.06 55.7,20.66 55.7,21.6C55.7,22.7 56.3,23.42 57.3,23.42ZM65.34,12.1C64.82,12.1 64.34,11.66 64.34,11.1C64.34,10.58 64.82,10.12 65.34,10.12C65.88,10.12 66.34,10.58 66.34,11.1C66.34,11.66 65.88,12.1 65.34,12.1ZM66.42,22.74C66.42,23.24 66.96,23.4 67.6,23.48L67.6,24C66.2,23.94 64.82,23.94 63.42,24L63.42,23.48C64.08,23.4 64.6,23.24 64.6,22.74L64.6,15.82C64.6,15.16 64.18,14.98 63.4,15.02L63.4,14.5C64.98,14.28 65.62,13.76 66.02,13.76C66.32,13.76 66.54,13.88 66.54,14.24C66.54,14.76 66.42,15.48 66.42,16.72L66.42,22.74Z" style="fill:rgb(45,43,117);fill-rule:nonzero;"/>
                </g>
            </g>
        </g>
    </g>
</svg>
