<svg id="Layer_1" data-name="Layer 1" xmlns="http://www.w3.org/2000/svg" viewBox="0 0 603.86 166"><defs><style>.cls-1{fill:#030d1d;}.cls-2,.cls-3,.cls-4,.cls-5,.cls-6,.cls-7,.cls-8{fill:#5e20e4;}.cls-3{opacity:0.25;}.cls-4{opacity:0.15;}.cls-5{opacity:0.4;}.cls-6{opacity:0.1;}.cls-7{opacity:0.6;}.cls-8{opacity:0.8;}</style></defs><path class="cls-1" d="M436.61,152.58v7h-2.89v-7.35c0-2-1.12-3.2-2.67-3.2a3.14,3.14,0,0,0-3.31,3.5v7h-2.89V146.52h2.89v2c.87-1.83,3.09-2.25,4.13-2.25a4.15,4.15,0,0,1,4.12,2.61,4.77,4.77,0,0,1,4.41-2.61c3.23,0,5.05,2.11,5.05,5.84v7.55h-2.89v-7.3c0-2.05-1.09-3.25-2.78-3.25C437.87,149.08,436.61,150.48,436.61,152.58Z"/><path class="cls-1" d="M459.56,157.75a5.25,5.25,0,0,1-4.4,2.16,6.84,6.84,0,0,1,0-13.67,5.18,5.18,0,0,1,4.4,2.14v-1.86h2.87v13.11h-2.87Zm-4.06-.65a4,4,0,1,0-4-4.07A4,4,0,0,0,455.5,157.1Z"/><path class="cls-1" d="M469.33,153.54v6.09h-2.86V139.4h2.86v11.44l4.15-4.32h3.88l-5.59,5.7,6.85,7.41h-3.71Z"/><path class="cls-1" d="M492.31,154.1H481.9a3.8,3.8,0,0,0,4,3.28,4.05,4.05,0,0,0,3.57-1.88c.73.34,1.6.7,2.36,1a6.86,6.86,0,1,1-6.07-10.3,6.38,6.38,0,0,1,6.57,6.79C492.34,153.34,492.34,153.82,492.31,154.1Zm-2.8-2.11a3.56,3.56,0,0,0-3.74-3.22A3.67,3.67,0,0,0,481.9,152Z"/><path class="cls-1" d="M506.15,146.52h2.77v2.39h-2.77v10.72h-2.89V148.91H500.9v-2.39h2.36v-5h2.89Z"/><path class="cls-1" d="M514.54,159.63h-2.89V139.4h2.89v9.12c.73-1.6,2.78-2.28,4.15-2.28,3.34,0,5.3,2.19,5.3,5.92v7.47H521.1v-7.3a2.94,2.94,0,0,0-2.91-3.25,3.38,3.38,0,0,0-3.65,3.5Z"/><path class="cls-1" d="M540.3,154.1H529.89a3.8,3.8,0,0,0,4,3.28,4,4,0,0,0,3.56-1.88c.73.34,1.6.7,2.36,1a6.86,6.86,0,1,1-6.06-10.3c3.73,0,6.56,2.64,6.56,6.79C540.32,153.34,540.32,153.82,540.3,154.1ZM537.49,152a3.56,3.56,0,0,0-3.73-3.22,3.67,3.67,0,0,0-3.87,3.22Z"/><path class="cls-1" d="M550.51,139.4h2.89v20.23h-2.89Z"/><path class="cls-1" d="M569.87,154.1H559.46a3.81,3.81,0,0,0,4,3.28A4,4,0,0,0,567,155.5c.73.34,1.6.7,2.36,1a6.86,6.86,0,1,1-6.06-10.3c3.73,0,6.56,2.64,6.56,6.79C569.9,153.34,569.9,153.82,569.87,154.1Zm-2.8-2.11a3.56,3.56,0,0,0-3.73-3.22,3.68,3.68,0,0,0-3.88,3.22Z"/><path class="cls-1" d="M583.17,157.75a5.25,5.25,0,0,1-4.4,2.16,6.84,6.84,0,0,1,0-13.67,5.18,5.18,0,0,1,4.4,2.14v-1.86H586v13.11h-2.87Zm-4.06-.65a4,4,0,1,0-4-4.07A4,4,0,0,0,579.11,157.1Z"/><path class="cls-1" d="M593,148.46a5.09,5.09,0,0,1,4.38-2.22,6.84,6.84,0,0,1,0,13.67,4.91,4.91,0,0,1-4.38-2.16V166h-2.89V146.52H593Zm4,8.67a3.82,3.82,0,0,0,3.93-4,4,4,0,1,0-3.93,4Z"/><path class="cls-2" d="M35.38,94.83c-2.83,4.25-9.46,5.86-12.86,5.86A22.54,22.54,0,0,1,0,77.7a22.54,22.54,0,0,1,22.52-23c2.84,0,9.46.95,12.86,5.87V55.66H48.44V99.84H35.38ZM24.69,88.2c5.4,0,10.69-3.88,10.69-10.5S30.09,67.2,24.69,67.2,13.62,71.36,13.62,77.7,19.21,88.2,24.69,88.2Z"/><path class="cls-2" d="M81,110.06c10,0,12.77-6.91,12.2-15.71-2.08,4.07-7.75,6.44-13.24,6.44-11.35,0-22-9-22-22.9,0-14.19,10.7-23.18,22-23.18,5.49,0,11.07,2.37,13.24,6.43V55.66H106v38c0,19-9.28,28.19-25,28.19a23.53,23.53,0,0,1-21.76-13.71c3.31-1.61,7.28-3.6,10.6-5.21C71.35,107,76.55,110.06,81,110.06ZM82.23,67.2a10.6,10.6,0,1,0,0,21.19A10.75,10.75,0,0,0,92.92,77.61C92.92,71,87.72,67.2,82.23,67.2Z"/><path class="cls-2" d="M131.25,99.84H118.1V55.66h13.15v6.43A14.74,14.74,0,0,1,144,54.71c9.94,0,16.18,6.15,16.18,18.73v26.4H147.05V76.28c0-5.86-3.22-8.8-7.66-8.8-4.64,0-8.14,2.27-8.14,9Z"/><path class="cls-2" d="M169.2,77.61c0-13.91,10.41-22.9,22.9-22.9s23,9,23,22.9-10.51,23-23,23S169.2,91.51,169.2,77.61Zm32.92,0a10,10,0,1,0-10,10.12A9.8,9.8,0,0,0,202.12,77.61Z"/><path class="cls-2" d="M236,81.68c-13.25-3.6-13.34-10.32-13.25-14.39.1-6.52,8-12.58,17.22-12.58,8.8,0,18.07,3.88,18.16,14.67H245.75c-.09-3.31-2.93-3.88-5-3.88-2.84,0-4.73,1.32-4.64,3.31.1,1.32,1.23,2.65,3.88,3.31l7.47,2c10.69,2.93,12,10,12,12.86,0,9.37-9.84,13.82-19.11,13.82-9,0-18.36-5.4-18.45-15.24h12.3c.09,2.56,2.93,5.11,6.53,5.11,2.93-.09,5.39-1.42,5.39-3.69,0-1.89-1.14-2.93-4.35-3.78Z"/><path class="cls-2" d="M407.85,85a7.9,7.9,0,1,1-8.13,7.85A7.89,7.89,0,0,1,407.85,85Z"/><path class="cls-2" d="M459.9,94.83c-2.84,4.25-9.47,5.86-12.87,5.86a22.54,22.54,0,0,1-22.52-23,22.54,22.54,0,0,1,22.52-23c2.84,0,9.46.95,12.87,5.87V55.66H473V99.84H459.9ZM449.2,88.2c5.4,0,10.7-3.88,10.7-10.5s-5.3-10.5-10.7-10.5-11.06,4.16-11.06,10.5S443.72,88.2,449.2,88.2Z"/><path class="cls-2" d="M491.6,31.63a7.78,7.78,0,0,1,8,7.66,7.87,7.87,0,0,1-8,7.76,8,8,0,0,1-8.23-7.76C483.37,34.94,487.16,31.63,491.6,31.63Zm6.53,68.21H485.08V55.66h13.05Z"/><path class="cls-3" d="M322.87,0a8,8,0,0,1,8.23,7.85,8,8,0,0,1-8.23,8,7.9,7.9,0,1,1,0-15.8Z"/><path class="cls-4" d="M286.62,7.9a8,8,0,0,1,8.23,7.85,8.18,8.18,0,0,1-16.36,0A7.89,7.89,0,0,1,286.62,7.9Z"/><path class="cls-5" d="M357.21,6.92a8,8,0,0,1,8.24,7.85,8,8,0,0,1-8.24,8,7.9,7.9,0,1,1,0-15.8Z"/><path class="cls-6" d="M259.42,27.78a7.9,7.9,0,1,1-8.13,7.85A7.89,7.89,0,0,1,259.42,27.78Z"/><path class="cls-7" d="M385,26.47a7.9,7.9,0,1,1-8.13,7.86A7.9,7.9,0,0,1,385,26.47Z"/><path class="cls-8" d="M401.41,53.57a7.9,7.9,0,1,1-8.14,7.85A8,8,0,0,1,401.41,53.57Z"/></svg>